<svg width="16" height="16" viewBox="0 0 16 16" fill="none" xmlns="http://www.w3.org/2000/svg">
<path d="M13.3332 4.63335V11.3667C13.2265 11.3467 13.1132 11.3334 12.9998 11.3334C12.0798 11.3334 11.3332 12.08 11.3332 13C11.3332 13.1134 11.3465 13.2267 11.3665 13.3334H4.63317C4.65317 13.2267 4.6665 13.1134 4.6665 13C4.6665 12.08 3.91984 11.3334 2.99984 11.3334C2.8865 11.3334 2.77317 11.3467 2.6665 11.3667V4.63335C2.77317 4.65335 2.8865 4.66669 2.99984 4.66669C3.91984 4.66669 4.6665 3.92002 4.6665 3.00002C4.6665 2.88669 4.65317 2.77335 4.63317 2.66669H11.3665C11.3465 2.77335 11.3332 2.88669 11.3332 3.00002C11.3332 3.92002 12.0798 4.66669 12.9998 4.66669C13.1132 4.66669 13.2265 4.65335 13.3332 4.63335Z" stroke="#555555" stroke-linecap="round" stroke-linejoin="round"/>
<path d="M4.66683 2.99998C4.66683 3.91998 3.92016 4.66665 3.00016 4.66665C2.88683 4.66665 2.7735 4.65331 2.66683 4.63331C1.90683 4.47998 1.3335 3.80665 1.3335 2.99998C1.3335 2.07998 2.08016 1.33331 3.00016 1.33331C3.80683 1.33331 4.48016 1.90665 4.6335 2.66665C4.6535 2.77331 4.66683 2.88665 4.66683 2.99998Z" stroke="#555555" stroke-linecap="round" stroke-linejoin="round"/>
<path d="M14.6668 2.99998C14.6668 3.80665 14.0935 4.47998 13.3335 4.63331C13.2268 4.65331 13.1135 4.66665 13.0002 4.66665C12.0802 4.66665 11.3335 3.91998 11.3335 2.99998C11.3335 2.88665 11.3468 2.77331 11.3668 2.66665C11.5202 1.90665 12.1935 1.33331 13.0002 1.33331C13.9202 1.33331 14.6668 2.07998 14.6668 2.99998Z" stroke="#555555" stroke-linecap="round" stroke-linejoin="round"/>
<path d="M4.66683 13C4.66683 13.1133 4.6535 13.2266 4.6335 13.3333C4.48016 14.0933 3.80683 14.6666 3.00016 14.6666C2.08016 14.6666 1.3335 13.92 1.3335 13C1.3335 12.1933 1.90683 11.52 2.66683 11.3666C2.7735 11.3466 2.88683 11.3333 3.00016 11.3333C3.92016 11.3333 4.66683 12.08 4.66683 13Z" stroke="#555555" stroke-linecap="round" stroke-linejoin="round"/>
<path d="M14.6668 13C14.6668 13.92 13.9202 14.6666 13.0002 14.6666C12.1935 14.6666 11.5202 14.0933 11.3668 13.3333C11.3468 13.2266 11.3335 13.1133 11.3335 13C11.3335 12.08 12.0802 11.3333 13.0002 11.3333C13.1135 11.3333 13.2268 11.3466 13.3335 11.3666C14.0935 11.52 14.6668 12.1933 14.6668 13Z" stroke="#555555" stroke-linecap="round" stroke-linejoin="round"/>
</svg>
