<svg width="47" height="66" viewBox="0 0 47 66" fill="none" xmlns="http://www.w3.org/2000/svg">
<path d="M0.75 64.7501H45.9824" stroke="#555555" stroke-width="1.5" stroke-linecap="round" stroke-linejoin="round"/>
<path d="M6.62158 37.6401V64.7501" stroke="#555555" stroke-width="1.5" stroke-linecap="round" stroke-linejoin="round"/>
<path d="M10.4307 41.7821H12.4896" stroke="#555555" stroke-width="1.02949" stroke-linecap="round" stroke-linejoin="round"/>
<path d="M15.3481 41.7821H17.4071" stroke="#555555" stroke-width="1.02949" stroke-linecap="round" stroke-linejoin="round"/>
<path d="M10.4307 45.4471H12.4896" stroke="#555555" stroke-width="1.02949" stroke-linecap="round" stroke-linejoin="round"/>
<path d="M15.3481 45.4471H17.4071" stroke="#555555" stroke-width="1.02949" stroke-linecap="round" stroke-linejoin="round"/>
<path d="M10.4307 49.1121H12.4896" stroke="#555555" stroke-width="1.02949" stroke-linecap="round" stroke-linejoin="round"/>
<path d="M15.3481 49.1121H17.4071" stroke="#555555" stroke-width="1.02949" stroke-linecap="round" stroke-linejoin="round"/>
<path d="M10.4307 52.7805H12.4896" stroke="#555555" stroke-width="1.02949" stroke-linecap="round" stroke-linejoin="round"/>
<path d="M15.3481 52.7805H17.4071" stroke="#555555" stroke-width="1.02949" stroke-linecap="round" stroke-linejoin="round"/>
<path d="M10.4307 56.4455H12.4896" stroke="#555555" stroke-width="1.02949" stroke-linecap="round" stroke-linejoin="round"/>
<path d="M15.3481 56.4455H17.4071" stroke="#555555" stroke-width="1.02949" stroke-linecap="round" stroke-linejoin="round"/>
<path d="M10.4307 60.1105H12.4896" stroke="#555555" stroke-width="1.02949" stroke-linecap="round" stroke-linejoin="round"/>
<path d="M15.3481 60.1105H17.4071" stroke="#555555" stroke-width="1.02949" stroke-linecap="round" stroke-linejoin="round"/>
<path d="M6.62158 37.6401L21.5114 34.3801L26.2677 26.6589L6.62158 37.6401Z" fill="#F4714F" stroke="#555555" stroke-width="1.5" stroke-linecap="round" stroke-linejoin="round"/>
<path d="M26.2677 64.7501V26.6589L21.5115 34.3801V64.7501H26.2677Z" fill="#F4714F" stroke="#555555" stroke-width="1.5" stroke-linecap="round" stroke-linejoin="round"/>
<path d="M29.4692 41.7821H30.4987" stroke="#555555" stroke-width="1.02949" stroke-linecap="round" stroke-linejoin="round"/>
<path d="M29.4692 45.4471H30.4987" stroke="#555555" stroke-width="1.02949" stroke-linecap="round" stroke-linejoin="round"/>
<path d="M29.4692 49.1121H30.4987" stroke="#555555" stroke-width="1.02949" stroke-linecap="round" stroke-linejoin="round"/>
<path d="M29.4692 34.4487H30.4987" stroke="#555555" stroke-width="1.02949" stroke-linecap="round" stroke-linejoin="round"/>
<path d="M29.4692 38.1137H30.4987" stroke="#555555" stroke-width="1.02949" stroke-linecap="round" stroke-linejoin="round"/>
<path d="M29.4692 30.7837H30.4987" stroke="#555555" stroke-width="1.02949" stroke-linecap="round" stroke-linejoin="round"/>
<path d="M29.4692 23.4503H30.4987" stroke="#555555" stroke-width="1.02949" stroke-linecap="round" stroke-linejoin="round"/>
<path d="M29.4692 27.1153H30.4987" stroke="#555555" stroke-width="1.02949" stroke-linecap="round" stroke-linejoin="round"/>
<path d="M29.4692 52.7805H30.4987" stroke="#555555" stroke-width="1.02949" stroke-linecap="round" stroke-linejoin="round"/>
<path d="M29.4692 56.4455H30.4987" stroke="#555555" stroke-width="1.02949" stroke-linecap="round" stroke-linejoin="round"/>
<path d="M29.4692 60.1105H30.4987" stroke="#555555" stroke-width="1.02949" stroke-linecap="round" stroke-linejoin="round"/>
<path d="M13.0491 23.8244V30.6156" stroke="#555555" stroke-width="1.5" stroke-linecap="round" stroke-linejoin="round"/>
<path d="M13.0491 23.8244L35.0699 12.4622L40.2928 0.750061L13.0491 23.8244Z" fill="#F4714F" stroke="#555555" stroke-width="1.5" stroke-linecap="round" stroke-linejoin="round"/>
<path d="M40.2928 64.7501V0.750061L35.0698 12.4622V64.7501H40.2928Z" fill="#F4714F" stroke="#555555" stroke-width="1.5" stroke-linecap="round" stroke-linejoin="round"/>
</svg>
