<svg width="54" height="64" viewBox="0 0 54 64" fill="none" xmlns="http://www.w3.org/2000/svg">
<g clip-path="url(#clip0_478_389)">
<path d="M0.577271 63.4227H53.0658" stroke="#888888" stroke-width="1.5" stroke-linecap="round" stroke-linejoin="round"/>
<path d="M33.9186 63.4227V25.0819H11.65V36.7204" stroke="#555555" stroke-width="1.5" stroke-linecap="round" stroke-linejoin="round"/>
<path d="M48.7745 63.4227V0.577301H26.506V19.6591" stroke="#555555" stroke-width="1.5" stroke-linecap="round" stroke-linejoin="round"/>
<path d="M21.2411 41.2465H5.28821V63.4227H21.2411V41.2465Z" fill="#F4714F" stroke="#555555" stroke-width="1.5" stroke-linecap="round" stroke-linejoin="round"/>
<path d="M18.4122 31.3399H21.1756" stroke="#555555" stroke-width="1.15461" stroke-linecap="round" stroke-linejoin="round"/>
<path d="M25.1628 31.3399H27.9224" stroke="#555555" stroke-width="1.15461" stroke-linecap="round" stroke-linejoin="round"/>
<path d="M18.4122 36.2547H21.1756" stroke="#555555" stroke-width="1.15461" stroke-linecap="round" stroke-linejoin="round"/>
<path d="M25.1628 36.2547H27.9224" stroke="#555555" stroke-width="1.15461" stroke-linecap="round" stroke-linejoin="round"/>
<path d="M25.1628 41.1734H27.9224" stroke="#555555" stroke-width="1.15461" stroke-linecap="round" stroke-linejoin="round"/>
<path d="M9.56018 47.2428H17.3269" stroke="white" stroke-width="1.15461" stroke-linecap="round" stroke-linejoin="round"/>
<path d="M25.1628 46.0881H27.9224" stroke="#555555" stroke-width="1.15461" stroke-linecap="round" stroke-linejoin="round"/>
<path d="M9.56018 52.1575H17.3269" stroke="white" stroke-width="1.15461" stroke-linecap="round" stroke-linejoin="round"/>
<path d="M25.1628 51.0029H27.9224" stroke="#555555" stroke-width="1.15461" stroke-linecap="round" stroke-linejoin="round"/>
<path d="M39.8879 31.3399H42.6513" stroke="#555555" stroke-width="1.15461" stroke-linecap="round" stroke-linejoin="round"/>
<path d="M39.8879 36.2547H42.6513" stroke="#555555" stroke-width="1.15461" stroke-linecap="round" stroke-linejoin="round"/>
<path d="M39.8879 41.1733H42.6513" stroke="#555555" stroke-width="1.15461" stroke-linecap="round" stroke-linejoin="round"/>
<path d="M39.8879 46.0881H42.6513" stroke="#555555" stroke-width="1.15461" stroke-linecap="round" stroke-linejoin="round"/>
<path d="M39.8879 51.0029H42.6513" stroke="#555555" stroke-width="1.15461" stroke-linecap="round" stroke-linejoin="round"/>
<path d="M39.8879 55.9216H42.6513" stroke="#555555" stroke-width="1.15461" stroke-linecap="round" stroke-linejoin="round"/>
<path d="M39.8879 6.83527H42.6513" stroke="#555555" stroke-width="1.15461" stroke-linecap="round" stroke-linejoin="round"/>
<path d="M39.8879 11.7501H42.6513" stroke="#555555" stroke-width="1.15461" stroke-linecap="round" stroke-linejoin="round"/>
<path d="M39.8879 16.6687H42.6513" stroke="#555555" stroke-width="1.15461" stroke-linecap="round" stroke-linejoin="round"/>
<path d="M32.537 6.83527H35.3004" stroke="#555555" stroke-width="1.15461" stroke-linecap="round" stroke-linejoin="round"/>
<path d="M32.5369 11.7501H35.3002" stroke="#555555" stroke-width="1.15461" stroke-linecap="round" stroke-linejoin="round"/>
<path d="M32.5369 16.6687H35.3002" stroke="#555555" stroke-width="1.15461" stroke-linecap="round" stroke-linejoin="round"/>
<path d="M39.8879 21.5835H42.6513" stroke="#555555" stroke-width="1.15461" stroke-linecap="round" stroke-linejoin="round"/>
<path d="M39.8879 26.4983H42.6513" stroke="#555555" stroke-width="1.15461" stroke-linecap="round" stroke-linejoin="round"/>
<path d="M9.56018 57.0762H17.3269" stroke="white" stroke-width="1.15461" stroke-linecap="round" stroke-linejoin="round"/>
<path d="M25.1628 55.9216H27.9224" stroke="#555555" stroke-width="1.15461" stroke-linecap="round" stroke-linejoin="round"/>
</g>
<defs>
<clipPath id="clip0_478_389">
<rect width="53.6432" height="64" fill="white"/>
</clipPath>
</defs>
</svg>
