<svg width="48" height="48" viewBox="0 0 48 48" fill="none" xmlns="http://www.w3.org/2000/svg">
<path d="M42.1598 17.1601V30.84C42.1598 33.08 40.9598 35.1601 39.0198 36.3001L27.1398 43.1601C25.1998 44.2801 22.7998 44.2801 20.8398 43.1601L8.95982 36.3001C7.01982 35.1801 5.81982 33.1 5.81982 30.84V17.1601C5.81982 14.9201 7.01982 12.84 8.95982 11.7L20.8398 4.84C22.7798 3.72 25.1798 3.72 27.1398 4.84L39.0198 11.7C40.9598 12.84 42.1598 14.9001 42.1598 17.1601Z" fill="white" stroke="#555555" stroke-width="2" stroke-linecap="round" stroke-linejoin="round"/>
<path d="M23.9998 22C26.5735 22 28.6598 19.9136 28.6598 17.34C28.6598 14.7663 26.5735 12.6801 23.9998 12.6801C21.4262 12.6801 19.3398 14.7663 19.3398 17.34C19.3398 19.9136 21.4262 22 23.9998 22Z" fill="#F4714F" stroke="#555555" stroke-width="2" stroke-linecap="round" stroke-linejoin="round"/>
<path d="M32 33.3199C32 29.7199 28.42 26.8 24 26.8C19.58 26.8 16 29.7199 16 33.3199" stroke="#555555" stroke-width="2" stroke-linecap="round" stroke-linejoin="round"/>
</svg>
