<svg width="32" height="32" viewBox="0 0 32 32" fill="none" xmlns="http://www.w3.org/2000/svg">
<path d="M13.9998 26.5333V5.46667C13.9998 3.46667 13.1465 2.66667 11.0265 2.66667H5.63984C3.51984 2.66667 2.6665 3.46667 2.6665 5.46667V26.5333C2.6665 28.5333 3.51984 29.3333 5.63984 29.3333H11.0265C13.1465 29.3333 13.9998 28.5333 13.9998 26.5333Z" stroke="#111111" stroke-linecap="round" stroke-linejoin="round"/>
<path d="M29.3333 26.5333V5.46667C29.3333 3.46667 28.48 2.66667 26.36 2.66667H20.9733C18.8533 2.66667 18 3.46667 18 5.46667V26.5333C18 28.5333 18.8533 29.3333 20.9733 29.3333H26.36C28.48 29.3333 29.3333 28.5333 29.3333 26.5333Z" stroke="#111111" stroke-linecap="round" stroke-linejoin="round"/>
</svg>
