<svg width="26" height="28" viewBox="0 0 26 28" fill="none" xmlns="http://www.w3.org/2000/svg">
<path d="M23.8105 8.0734C23.2039 6.64419 22.3332 5.36103 21.2276 4.25522C20.122 3.15984 18.8403 2.29396 17.4119 1.6889C15.9345 1.06297 14.3691 0.75 12.7548 0.75C11.1405 0.75 9.57503 1.06297 8.09767 1.6889C6.66923 2.29396 5.38755 3.1494 4.28197 4.25522C3.1764 5.36103 2.30565 6.64419 1.69905 8.0734C1.07289 9.55477 0.75 11.1405 0.75 12.7679C0.75 15.6159 1.74794 18.3491 3.57752 20.519L2.59914 26.2045L7.80416 23.7321C9.35979 24.4415 11.0133 24.7962 12.745 24.7962C14.3593 24.7962 15.9248 24.4832 17.4021 23.8573C18.8306 23.2522 20.1122 22.3968 21.2178 21.291C22.3234 20.1852 23.1941 18.902 23.8007 17.4728C24.4269 15.9914 24.7498 14.4057 24.7498 12.7783C24.7596 11.1405 24.4367 9.5652 23.8105 8.0734Z" stroke="#FDFAF6" stroke-width="1.5"/>
<path d="M17.5702 15.1627C17.0711 14.89 16.7064 14.7222 16.4473 14.6173C16.2842 14.5544 15.9002 14.3656 15.7659 14.481C15.3436 14.8586 14.8925 15.9284 14.4126 16.1277C13.2226 15.876 12.1189 14.9844 11.2551 14.0719C10.8712 13.6733 10.161 12.5405 10.0074 12.2363C9.97862 11.9217 10.4969 11.5021 10.612 11.2609C11.2071 10.5266 10.756 10.0651 10.6792 9.76096C10.5449 9.44629 10.3145 8.87989 10.113 8.41838C9.94024 8.1142 9.90182 7.66318 9.5947 7.49536C8.28945 6.76114 7.54088 8.22958 7.23377 8.99527C5.38146 13.8726 16.5145 23.1553 18.7795 16.757C18.8946 16.2011 18.8466 15.9914 18.6739 15.7396C18.3284 15.4774 17.9253 15.362 17.5702 15.1627Z" stroke="#FDFAF6" stroke-width="1.5"/>
</svg>
