<svg width="32" height="32" viewBox="0 0 32 32" fill="none" xmlns="http://www.w3.org/2000/svg">
<path d="M15.9998 29.3333C23.3636 29.3333 29.3332 23.3638 29.3332 16C29.3332 8.6362 23.3636 2.66666 15.9998 2.66666C8.63604 2.66666 2.6665 8.6362 2.6665 16C2.6665 23.3638 8.63604 29.3333 15.9998 29.3333Z" stroke="#111111" stroke-miterlimit="10" stroke-linecap="round" stroke-linejoin="round"/>
<path d="M16.0003 19.84C14.787 19.84 13.8003 18.8533 13.8003 17.64V14.3467C13.8003 13.1333 14.787 12.1466 16.0003 12.1466C17.2136 12.1466 18.2003 13.1333 18.2003 14.3467V17.64C18.2003 18.8533 17.2136 19.84 16.0003 19.84Z" stroke="#111111" stroke-linecap="round"/>
<path d="M22.6402 17.96C22.3735 21.4 19.4935 24.0933 16.0002 24.0933C12.3202 24.0933 9.3335 21.1067 9.3335 17.4267V14.5733C9.3335 10.8933 12.3202 7.90665 16.0002 7.90665C19.4535 7.90665 22.2935 10.5333 22.6268 13.8933" stroke="#111111" stroke-linecap="round"/>
</svg>
