<svg width="32" height="32" viewBox="0 0 32 32" fill="none" xmlns="http://www.w3.org/2000/svg">
<path d="M4.6665 29.3333V6.66666C4.6665 4 6.45317 2.66666 8.6665 2.66666H19.3332C21.5465 2.66666 23.3332 4 23.3332 6.66666V29.3333H4.6665Z" stroke="#111111" stroke-linecap="round" stroke-linejoin="round"/>
<path d="M2.6665 29.3333H25.3332" stroke="#111111" stroke-linecap="round" stroke-linejoin="round"/>
<path d="M11.1865 13.3333H16.8265C18.2132 13.3333 19.3465 12.6667 19.3465 10.8133V9.17334C19.3465 7.32001 18.2132 6.65334 16.8265 6.65334H11.1865C9.79984 6.65334 8.6665 7.32001 8.6665 9.17334V10.8133C8.6665 12.6667 9.79984 13.3333 11.1865 13.3333Z" stroke="#111111" stroke-linecap="round" stroke-linejoin="round"/>
<path d="M8.6665 17.3333H12.6665" stroke="#111111" stroke-linecap="round" stroke-linejoin="round"/>
<path d="M23.3335 21.3467L29.3335 21.3333V13.3333L26.6668 12" stroke="#111111" stroke-linecap="round" stroke-linejoin="round"/>
</svg>
