<svg width="10" height="14" viewBox="0 0 10 14" fill="none" xmlns="http://www.w3.org/2000/svg">
<path d="M2.09074 8.30665V6.79465C3.33519 6.79465 4.29341 6.60798 4.96541 6.23465C5.64985 5.86132 5.99208 5.16443 5.99208 4.14398C5.99208 3.45954 5.83652 2.92443 5.52541 2.53865C5.22674 2.15287 4.78497 1.88532 4.20008 1.73598C3.61519 1.58665 2.91208 1.51198 2.09074 1.51198V0.503982C2.91208 0.503982 3.66496 0.55376 4.34941 0.653316C5.0463 0.740427 5.64985 0.914649 6.16008 1.17598C6.68274 1.43732 7.08097 1.81065 7.35474 2.29598C7.64097 2.76887 7.78408 3.38487 7.78408 4.14398C7.78408 5.15198 7.55385 5.96709 7.09341 6.58932C6.63297 7.19909 5.97341 7.64087 5.11474 7.91465C4.26852 8.17598 3.26052 8.30665 2.09074 8.30665ZM0.093409 8.30665V6.79465H2.09074V8.30665H0.093409ZM5.35741 13.0667L0.093409 8.30665V7.89598L1.84808 7.82132L7.87741 13.0667H5.35741ZM7.56461e-05 4.90932V3.39732H9.09074V4.90932H7.56461e-05ZM7.56461e-05 1.51198V-1.80562e-05H9.09074V1.51198H7.56461e-05Z" fill="#555555"/>
</svg>
