<svg width="48" height="48" viewBox="0 0 48 48" fill="none" xmlns="http://www.w3.org/2000/svg">
<path d="M2 44H46" stroke="#555555" stroke-width="2" stroke-miterlimit="10" stroke-linecap="round" stroke-linejoin="round"/>
<path d="M39.5601 44.02V35.1" stroke="#555555" stroke-width="2" stroke-miterlimit="10" stroke-linecap="round" stroke-linejoin="round"/>
<path d="M39.6002 21.78C37.1602 21.78 35.2002 23.7401 35.2002 26.1801V30.72C35.2002 33.16 37.1602 35.12 39.6002 35.12C42.0402 35.12 44.0002 33.16 44.0002 30.72V26.1801C44.0002 23.7401 42.0402 21.78 39.6002 21.78Z" fill="#F4714F" stroke="#555555" stroke-width="2" stroke-miterlimit="10" stroke-linecap="round" stroke-linejoin="round"/>
<path d="M4.2002 44V12.0601C4.2002 8.04006 6.2003 6.02002 10.1803 6.02002H22.6403C26.6203 6.02002 28.6002 8.04006 28.6002 12.0601V44" stroke="#555555" stroke-width="2" stroke-miterlimit="10" stroke-linecap="round" stroke-linejoin="round"/>
<path d="M11.6001 16.5H21.5001" stroke="#555555" stroke-width="2" stroke-miterlimit="10" stroke-linecap="round" stroke-linejoin="round"/>
<path d="M11.6001 24H21.5001" stroke="#555555" stroke-width="2" stroke-miterlimit="10" stroke-linecap="round" stroke-linejoin="round"/>
<path d="M16.5 44V36.5" stroke="#555555" stroke-width="2" stroke-miterlimit="10" stroke-linecap="round" stroke-linejoin="round"/>
</svg>
