<svg width="16" height="16" viewBox="0 0 16 16" fill="none" xmlns="http://www.w3.org/2000/svg">
<path d="M14.6463 12.22C14.6463 12.46 14.593 12.7067 14.4797 12.9467C14.3663 13.1867 14.2197 13.4133 14.0263 13.6267C13.6997 13.9867 13.3397 14.2467 12.933 14.4133C12.533 14.58 12.0997 14.6667 11.633 14.6667C10.953 14.6667 10.2263 14.5067 9.45967 14.18C8.69301 13.8533 7.92634 13.4133 7.16634 12.86C6.39967 12.3 5.67301 11.68 4.97967 10.9933C4.29301 10.3 3.67301 9.57334 3.11967 8.81334C2.57301 8.05334 2.13301 7.29334 1.81301 6.54C1.49301 5.78 1.33301 5.05334 1.33301 4.36C1.33301 3.90667 1.41301 3.47334 1.57301 3.07334C1.73301 2.66667 1.98634 2.29334 2.33967 1.96C2.76634 1.54 3.23301 1.33334 3.72634 1.33334C3.91301 1.33334 4.09967 1.37334 4.26634 1.45334C4.43967 1.53334 4.59301 1.65334 4.71301 1.82667L6.25967 4.00667C6.37967 4.17334 6.46634 4.32667 6.52634 4.47334C6.58634 4.61334 6.61967 4.75334 6.61967 4.88C6.61967 5.04 6.57301 5.2 6.47967 5.35334C6.39301 5.50667 6.26634 5.66667 6.10634 5.82667L5.59967 6.35334C5.52634 6.42667 5.49301 6.51334 5.49301 6.62C5.49301 6.67334 5.49967 6.72 5.51301 6.77334C5.53301 6.82667 5.55301 6.86667 5.56634 6.90667C5.68634 7.12667 5.89301 7.41334 6.18634 7.76C6.48634 8.10667 6.80634 8.46 7.15301 8.81334C7.51301 9.16667 7.85967 9.49334 8.21301 9.79334C8.55967 10.0867 8.84634 10.2867 9.07301 10.4067C9.10634 10.42 9.14634 10.44 9.19301 10.46C9.24634 10.48 9.29967 10.4867 9.35967 10.4867C9.47301 10.4867 9.55967 10.4467 9.63301 10.3733L10.1397 9.87334C10.3063 9.70667 10.4663 9.58 10.6197 9.5C10.773 9.40667 10.9263 9.36 11.093 9.36C11.2197 9.36 11.353 9.38667 11.4997 9.44667C11.6463 9.50667 11.7997 9.59334 11.9663 9.70667L14.173 11.2733C14.3463 11.3933 14.4663 11.5333 14.5397 11.7C14.6063 11.8667 14.6463 12.0333 14.6463 12.22Z" stroke="#F04923" stroke-miterlimit="10"/>
<path d="M12.3333 6C12.3333 5.6 12.02 4.98666 11.5533 4.48666C11.1267 4.02666 10.56 3.66666 10 3.66666" stroke="#F04923" stroke-linecap="round" stroke-linejoin="round"/>
<path d="M14.6667 6C14.6667 3.42 12.58 1.33334 10 1.33334" stroke="#F04923" stroke-linecap="round" stroke-linejoin="round"/>
</svg>
