<svg width="47" height="64" viewBox="0 0 47 64" fill="none" xmlns="http://www.w3.org/2000/svg">
<g clip-path="url(#clip0_478_724)">
<path d="M0.506592 63.4934H46.1408" stroke="#555555" stroke-width="1.5" stroke-linecap="round" stroke-linejoin="round"/>
<path fill-rule="evenodd" clip-rule="evenodd" d="M22.7833 63.4934V22.6043L5.06934 36.8869V63.4934H22.7833Z" fill="#F4714F" stroke="#555555" stroke-width="1.5" stroke-linecap="round" stroke-linejoin="round"/>
<path d="M10.0509 42.7838H17.7849" stroke="white" stroke-width="1.01319" stroke-linecap="round" stroke-linejoin="round"/>
<path d="M10.0509 39.4807H17.7849" stroke="white" stroke-width="1.01319" stroke-linecap="round" stroke-linejoin="round"/>
<path d="M13.9178 36.1743H17.7849" stroke="white" stroke-width="1.01319" stroke-linecap="round" stroke-linejoin="round"/>
<path d="M10.0509 46.0901H17.7849" stroke="white" stroke-width="1.01319" stroke-linecap="round" stroke-linejoin="round"/>
<path d="M10.0509 49.3965H17.7849" stroke="white" stroke-width="1.01319" stroke-linecap="round" stroke-linejoin="round"/>
<path d="M10.0509 52.6995H17.7849" stroke="white" stroke-width="1.01319" stroke-linecap="round" stroke-linejoin="round"/>
<path d="M10.0509 56.0059H17.7849" stroke="white" stroke-width="1.01319" stroke-linecap="round" stroke-linejoin="round"/>
<path d="M10.0509 59.3123H17.7849" stroke="white" stroke-width="1.01319" stroke-linecap="round" stroke-linejoin="round"/>
<path d="M18.5009 21.1588V11.1552L41.1727 29.4366V63.4934" stroke="#555555" stroke-width="1.5" stroke-linecap="round" stroke-linejoin="round"/>
<path d="M24.1545 11.5909V0.506592L38.8154 12.3305V24.1241" stroke="#555555" stroke-width="1.5" stroke-linecap="round" stroke-linejoin="round"/>
<path d="M29.5886 36.9883H26.755" stroke="#555555" stroke-width="1.01319" stroke-linecap="round" stroke-linejoin="round"/>
<path d="M29.5886 32.7565H26.755" stroke="#555555" stroke-width="1.01319" stroke-linecap="round" stroke-linejoin="round"/>
<path d="M29.5886 28.5247H26.755" stroke="#555555" stroke-width="1.01319" stroke-linecap="round" stroke-linejoin="round"/>
<path d="M29.5886 41.22H26.755" stroke="#555555" stroke-width="1.01319" stroke-linecap="round" stroke-linejoin="round"/>
<path d="M29.5886 45.4484H26.755" stroke="#555555" stroke-width="1.01319" stroke-linecap="round" stroke-linejoin="round"/>
<path d="M29.5886 49.6802H26.755" stroke="#555555" stroke-width="1.01319" stroke-linecap="round" stroke-linejoin="round"/>
<path d="M29.5886 53.912H26.755" stroke="#555555" stroke-width="1.01319" stroke-linecap="round" stroke-linejoin="round"/>
<path d="M29.5886 58.1404H26.755" stroke="#555555" stroke-width="1.01319" stroke-linecap="round" stroke-linejoin="round"/>
<path d="M35.9312 36.9883H33.0977" stroke="#555555" stroke-width="1.01319" stroke-linecap="round" stroke-linejoin="round"/>
<path d="M35.9312 32.7565H33.0977" stroke="#555555" stroke-width="1.01319" stroke-linecap="round" stroke-linejoin="round"/>
<path d="M35.9312 41.22H33.0977" stroke="#555555" stroke-width="1.01319" stroke-linecap="round" stroke-linejoin="round"/>
<path d="M35.9312 45.4484H33.0977" stroke="#555555" stroke-width="1.01319" stroke-linecap="round" stroke-linejoin="round"/>
<path d="M35.9312 49.6802H33.0977" stroke="#555555" stroke-width="1.01319" stroke-linecap="round" stroke-linejoin="round"/>
<path d="M35.9312 53.912H33.0977" stroke="#555555" stroke-width="1.01319" stroke-linecap="round" stroke-linejoin="round"/>
<path d="M35.9312 58.1404H33.0977" stroke="#555555" stroke-width="1.01319" stroke-linecap="round" stroke-linejoin="round"/>
<path d="M27.4 8.23389L35.5664 14.7048" stroke="#555555" stroke-width="1.5" stroke-linecap="round" stroke-linejoin="round"/>
<path d="M27.4 12.3137L35.5664 18.7846" stroke="#555555" stroke-width="1.5" stroke-linecap="round" stroke-linejoin="round"/>
</g>
<defs>
<clipPath id="clip0_478_724">
<rect width="46.6474" height="64" fill="white"/>
</clipPath>
</defs>
</svg>
