<svg width="133" height="40" viewBox="0 0 133 40" fill="none" xmlns="http://www.w3.org/2000/svg">
<path d="M13.0252 25.4129C12.7082 25.4129 12.3153 25.3502 11.8531 25.228C11.3908 25.1059 10.9352 24.845 10.4862 24.4455C10.0371 24.046 9.65416 23.4286 9.33389 22.59L8.79241 21.1801H2.714L0.977308 25.304H0L6.07841 10.9746H6.72885L11.5064 22.59C11.8531 23.4022 12.1865 23.9668 12.5035 24.2936C12.8205 24.6205 13.286 24.812 13.8935 24.8681V25.304C13.6327 25.3766 13.3421 25.4129 13.0252 25.4129ZM3.04087 20.3118H8.35989L5.75485 14.0155L3.04087 20.3118Z" fill="#231F20"/>
<path d="M25.9017 25.5219L16.5645 13.9065V25.304H15.6962V13.5797C15.6962 12.9292 15.5575 12.4042 15.2835 12.0047C15.0094 11.6052 14.4944 11.4071 13.7416 11.4071H13.5237V10.9713H14.9335C15.6434 10.9713 16.2245 11.0869 16.6801 11.318C17.1357 11.5491 17.5286 11.8694 17.8621 12.2722L25.4626 21.715V10.968H26.3309V25.5153H25.8984L25.9017 25.5219Z" fill="#231F20"/>
<path d="M27.9851 28.2788V27.843C28.695 27.843 29.2166 27.4666 29.5501 26.7138C29.8836 25.961 30.0487 24.9276 30.0487 23.6102V10.9746H32.0033V23.6102C32.0033 24.6964 31.8877 25.5813 31.6566 26.2713C31.4255 26.9581 31.0194 27.4666 30.4416 27.7901C29.8638 28.117 29.045 28.2788 27.9884 28.2788H27.9851Z" fill="#231F20"/>
<path d="M60.0511 25.5219L50.7172 13.9065V25.304H49.8489V13.5797C49.8489 12.9292 49.7102 12.4042 49.4362 12.0047C49.1621 11.6052 48.6471 11.4071 47.8943 11.4071H47.6764V10.9713H49.0862C49.7961 10.9713 50.3772 11.0869 50.8328 11.318C51.2884 11.5491 51.6846 11.8694 52.0148 12.2722L59.612 21.715V10.968H60.4803V25.5153H60.0445L60.0511 25.5219Z" fill="#231F20"/>
<path d="M64.6339 25.3073V13.5829C64.6339 12.9325 64.5448 12.4075 64.3632 12.008C64.1816 11.6085 63.7656 11.4104 63.1151 11.4104H62.6793V10.9746H71.9273C72.4325 10.9746 72.8188 11.0572 73.0797 11.2255C73.3405 11.3906 73.5221 11.6085 73.6211 11.876C73.7235 12.1434 73.773 12.4241 73.773 12.7113V14.339H73.3372C73.3372 13.4707 73.1028 12.8368 72.6306 12.4406C72.1618 12.0411 71.4915 11.843 70.6232 11.843H66.5852V17.4889H72.4457V18.3572H66.5852V24.4356H70.3855C71.3694 24.4356 72.1486 24.254 72.7198 23.8941C73.291 23.5342 73.7433 22.9168 74.0768 22.0485L74.5126 22.1574L73.7532 24.221C73.6376 24.5545 73.4461 24.8186 73.1787 25.0134C72.9113 25.2082 72.5613 25.3073 72.1255 25.3073H64.6339Z" fill="#231F20"/>
<path d="M81.4394 25.3074V19.3808L77.7481 13.801C77.299 13.1637 76.8533 12.6223 76.4142 12.1732C75.9718 11.7242 75.3676 11.47 74.6016 11.4139V10.978H76.5562C77.091 10.978 77.5566 11.0936 77.9561 11.3247C78.3556 11.5558 78.7023 11.853 78.9994 12.2162C79.2966 12.5793 79.5673 12.9623 79.8149 13.3684L82.9615 18.255L87.498 10.9813H88.4753L83.394 19.2323V25.3107H81.4394V25.3074Z" fill="#231F20"/>
<path d="M17.971 39.9207H17.3503C17.3106 39.8018 17.2875 39.5674 17.2776 39.2141C17.0267 39.6103 16.5381 39.9999 15.5872 39.9999C13.9991 39.9999 13.1472 38.7948 13.1472 37.2298C13.1472 35.5823 14.0618 34.3408 15.7357 34.3408C17.0399 34.3408 17.8521 35.054 18.004 36.028H17.1885C17.0168 35.4601 16.6008 35.0111 15.7225 35.0111C14.4712 35.0111 14.0023 36.0181 14.0023 37.1935C14.0023 38.293 14.4877 39.3264 15.7027 39.3264C16.9177 39.3264 17.1786 38.5274 17.1786 37.6821V37.626H15.6928V36.9359H17.9743V39.9273L17.971 39.9207Z" fill="#595A5C"/>
<path d="M20.2361 34.4167H21.0516V39.2306H23.8977L23.7887 39.9207H20.2328V34.4167H20.2361Z" fill="#595A5C"/>
<path d="M30.3491 37.1407C30.3491 38.6594 29.4874 39.9999 27.7441 39.9999C26.1032 39.9999 25.1985 38.7486 25.1985 37.1671C25.1985 35.5856 26.1362 34.3342 27.8101 34.3342C29.3718 34.3342 30.3491 35.4898 30.3491 37.1374V37.1407ZM26.0503 37.144C26.0503 38.3128 26.6347 39.3099 27.7771 39.3099C29.0119 39.3099 29.4973 38.2896 29.4973 37.1506C29.4973 36.0115 28.9492 35.0243 27.7771 35.0243C26.605 35.0243 26.0536 35.9884 26.0536 37.144H26.0503Z" fill="#595A5C"/>
<path d="M32.4259 34.4167H34.5951C35.7903 34.4167 36.3252 35.0441 36.3252 35.7969C36.3252 36.4341 35.9653 36.8468 35.5526 36.9954C35.9356 37.1208 36.5035 37.5104 36.5035 38.3028C36.5035 39.3231 35.721 39.9207 34.6545 39.9207H32.4292V34.4167H32.4259ZM34.4531 36.685C35.2059 36.685 35.5031 36.3812 35.5031 35.8728C35.5031 35.4006 35.163 35.0804 34.5522 35.0804H33.2282V36.685H34.4564H34.4531ZM33.2249 39.257H34.5291C35.2125 39.257 35.6549 38.9434 35.6549 38.2929C35.6549 37.725 35.2885 37.3453 34.4135 37.3453H33.2216V39.257H33.2249Z" fill="#595A5C"/>
<path d="M39.3791 38.3424L38.8178 39.9207H38.0056L39.947 34.4167H40.9573L42.9846 39.9207H42.1162L41.5351 38.3424H39.3725H39.3791ZM41.3403 37.6491C40.8418 36.2558 40.5611 35.4931 40.439 35.0606H40.4324C40.297 35.5426 39.9833 36.4605 39.5838 37.6491H41.3436H41.3403Z" fill="#595A5C"/>
<path d="M44.771 34.4167H45.5865V39.2306H48.4326L48.3236 39.9207H44.7677V34.4167H44.771Z" fill="#595A5C"/>
<path d="M53.9528 37.5401V39.924H53.1472V34.42H55.3494C56.4918 34.42 57.1059 35.0441 57.1059 35.8992C57.1059 36.619 56.6965 37.0449 56.1947 37.1968C56.6107 37.3123 57.0069 37.6392 57.0069 38.6V38.8443C57.0069 39.2207 56.9937 39.6896 57.0828 39.9273H56.2937C56.1947 39.6896 56.198 39.2636 56.198 38.7354V38.6264C56.198 37.8769 55.99 37.5468 55.0226 37.5468H53.9627L53.9528 37.5401ZM53.9528 36.86H55.1117C55.9173 36.86 56.264 36.5562 56.264 35.9685C56.264 35.3808 55.9008 35.0936 55.1844 35.0936H53.9528V36.86Z" fill="#595A5C"/>
<path d="M62.7718 37.385H60.0545V39.2273H63.0425L62.9402 39.9174H59.2588V34.4135H62.9039V35.1035H60.0578V36.6883H62.7751V37.3784L62.7718 37.385Z" fill="#595A5C"/>
<path d="M65.9249 38.3424L65.3636 39.9207H64.5514L66.4928 34.4167H67.5031L69.5303 39.9207H68.662L68.0809 38.3424H65.9183H65.9249ZM67.8861 37.6491C67.3875 36.2558 67.1069 35.4931 66.9847 35.0606H66.9781C66.8428 35.5426 66.5291 36.4605 66.1296 37.6491H67.8894H67.8861Z" fill="#595A5C"/>
<path d="M71.3165 34.4167H72.1321V39.2306H74.9781L74.8692 39.9207H71.3132V34.4167H71.3165Z" fill="#595A5C"/>
<path d="M77.0219 35.1101H75.2654V34.42H79.6038V35.1101H77.844V39.924H77.0219V35.1101Z" fill="#595A5C"/>
<path d="M83.0044 39.9207V37.9165C83.0044 37.8604 82.9912 37.8076 82.9648 37.7646L81.0333 34.4167H81.9644C82.4498 35.2983 83.2025 36.6586 83.4568 37.1637C83.6945 36.6685 84.4737 35.2884 84.9755 34.4167H85.8439L83.8596 37.7713C83.8398 37.8076 83.8266 37.834 83.8266 37.9198V39.924H83.0044V39.9207Z" fill="#595A5C"/>
<path d="M42.9451 21.1801L43.4866 22.59C43.8035 23.4286 44.1898 24.0493 44.6389 24.4455C45.0879 24.845 45.5435 25.1059 46.0058 25.228C46.468 25.3502 46.8609 25.4129 47.1779 25.4129C47.4948 25.4129 47.7854 25.3766 48.0462 25.304V24.8681C47.4387 24.812 46.9765 24.6172 46.6562 24.2936C46.3392 23.9668 46.0057 23.3989 45.6591 22.59L40.8188 10.9746H39.4222L33.4065 25.304H35.13L36.8667 21.1801M36.8667 21.1801L39.8415 14.0155L42.9451 21.1801" fill="#231F20"/>
<path d="M89.6145 23.4584C90.9946 20.7279 92.028 17.5253 93.3091 14.7651C93.111 13.626 91.7705 11.9686 90.5621 11.8893C90.1361 11.8629 89.7135 12.1667 89.3404 11.9686C93.1242 9.72671 95.3495 12.5893 96.8188 15.749C99.3677 21.2199 99.9818 26.6875 105.681 30.0684C115.328 35.7969 128.637 30.5868 130.361 19.2092C132.259 6.66604 119.013 -2.64143 107.774 3.24548C106.839 3.73413 103.33 6.25333 102.993 7.08535C102.9 7.31647 103.099 7.72258 103.049 8.10888C102.953 8.85506 102.521 9.39984 102.253 10.0602L102.009 9.73001L100.682 11.2191L100.355 10.8889C99.4502 11.7407 97.7994 12.1435 96.7923 11.3016C97.4725 11.361 98.1692 11.371 98.7767 10.9681C99.2554 10.6545 98.5687 10.8262 98.6149 10.5587C100.051 10.08 99.7672 7.83484 100.923 6.98631C101.52 6.54718 102.016 6.91037 102.425 6.66604C102.636 6.54058 103.96 4.90624 104.409 4.51004C118.438 -7.74255 139.074 9.23806 129.717 25.5121C122.047 38.8476 100.596 36.4539 96.1155 21.8373L91.6615 21.8968C91.5394 21.9727 90.5224 24.3466 90.5191 24.548C90.5092 25.2876 91.2026 25.1588 91.4997 25.6244H87.5146C87.3924 25.6244 87.3693 25.4593 87.4816 25.4164C87.6665 25.347 87.8349 25.2678 87.9933 25.1786C88.6966 24.7857 89.2579 24.1749 89.6211 23.4552L89.6145 23.4584ZM91.9917 20.9888H95.6335C95.2967 19.5559 94.7222 18.1097 94.184 16.7164C94.1048 16.5084 94.26 16.2773 93.8935 16.3499L91.9884 20.9888H91.9917Z" fill="#F04923"/>
<path d="M105.747 21.9759L105.899 22.3325L103.848 23.8975L103.733 23.6234L105.073 22.5966L105.578 22.2565L105.572 22.24L104.958 22.3226L103.251 22.481L103.109 22.1476L104.413 21.0316L104.895 20.6519L104.885 20.6321L104.291 20.751L102.62 21.0052L102.504 20.7344L105.057 20.3514L105.205 20.7014L104.093 21.6655L103.472 22.1839L103.482 22.2037L104.287 22.1178L105.75 21.9792L105.747 21.9759Z" fill="black"/>
<path d="M104.581 17.5253L104.614 17.7894L102.135 18.1064L102.102 17.8422L104.581 17.5253ZM104.792 19.1926L104.825 19.4535L102.346 19.7704L102.313 19.5063L104.792 19.1893V19.1926ZM103.465 17.8158L103.68 19.4997L103.442 19.5294L103.227 17.8455L103.465 17.8158Z" fill="black"/>
<path d="M104.614 16.7659L104.591 17.0301L102.102 16.8089L102.125 16.5447L104.614 16.7626V16.7659ZM102.488 15.1547L102.349 16.7428L102.108 16.7197L102.247 15.1316L102.488 15.1514V15.1547ZM103.604 15.3099L103.468 16.8419L103.224 16.8221L103.36 15.2901L103.604 15.3132V15.3099ZM104.736 15.3528L104.598 16.9409L104.353 16.9178L104.492 15.3297L104.736 15.3528Z" fill="black"/>
<path d="M104.885 14.7287L104.809 14.9829L102.415 14.2664L102.706 13.2891C102.755 13.124 102.825 12.9887 102.914 12.8797C103.006 12.7708 103.112 12.6981 103.237 12.6585C103.363 12.6189 103.498 12.6222 103.647 12.6651C103.782 12.7047 103.891 12.7708 103.974 12.8566C104.056 12.9458 104.106 13.0481 104.125 13.1703C104.145 13.2924 104.139 13.4278 104.099 13.5731L104.122 13.5797C104.162 13.5103 104.218 13.4575 104.284 13.4179C104.35 13.3783 104.429 13.3486 104.518 13.3287L105.357 13.1373L105.268 13.4344L104.479 13.6226C104.399 13.6358 104.33 13.6622 104.271 13.6952C104.211 13.7282 104.162 13.7745 104.119 13.8339C104.076 13.8933 104.04 13.9759 104.01 14.0815L103.908 14.4282L104.885 14.7188V14.7287ZM102.722 14.0815L103.693 14.3721L103.921 13.6094C103.974 13.4278 103.977 13.2825 103.927 13.1703C103.875 13.058 103.766 12.9788 103.597 12.9292C103.432 12.8797 103.297 12.8863 103.194 12.9523C103.089 13.0184 103.009 13.1406 102.957 13.3221L102.729 14.0848L102.722 14.0815Z" fill="black"/>
<path d="M105.628 12.6189L105.502 12.8533L103.3 11.6713L103.425 11.4369L105.628 12.6189ZM104.31 10.3011L103.557 11.7043L103.343 11.5888L104.096 10.1855L104.31 10.3011ZM105.271 10.8822L104.545 12.2359L104.327 12.1203L105.053 10.7666L105.271 10.8822ZM106.298 11.3675L105.545 12.7708L105.327 12.6552L106.08 11.252L106.298 11.3675Z" fill="black"/>
<path d="M106.681 7.48797L105.268 8.95392L105.093 8.78553L106.506 7.31958L106.681 7.48797ZM107.688 9.6935L107.506 9.8817L105.707 8.14831L105.889 7.96011L107.688 9.6935Z" fill="black"/>
<path d="M108.711 8.76248L108.494 8.91105L107.077 6.85079L107.916 6.273C108.058 6.17725 108.196 6.11452 108.335 6.0881C108.474 6.06169 108.606 6.0716 108.728 6.12112C108.85 6.17065 108.956 6.25649 109.042 6.38525C109.121 6.50412 109.167 6.61967 109.174 6.74183C109.184 6.86069 109.157 6.97625 109.094 7.08191C109.035 7.19086 108.943 7.28992 108.82 7.37907L108.834 7.39888C108.91 7.37246 108.982 7.36256 109.058 7.37576C109.134 7.38567 109.213 7.41208 109.296 7.4517L110.072 7.82809L109.818 8.00308L109.085 7.65641C109.012 7.61679 108.943 7.59367 108.877 7.58047C108.811 7.56726 108.741 7.57387 108.672 7.59368C108.603 7.61349 108.52 7.65641 108.431 7.71914L108.134 7.92384L108.711 8.76248ZM107.43 6.90362L108.005 7.73565L108.659 7.28662C108.814 7.18097 108.906 7.06541 108.936 6.94655C108.966 6.82769 108.929 6.69561 108.83 6.55034C108.735 6.40837 108.622 6.32913 108.5 6.31592C108.378 6.30272 108.239 6.34563 108.084 6.45459L107.43 6.90362Z" fill="black"/>
<path d="M111.326 7.33292C111.128 7.41216 110.94 7.44188 110.765 7.42537C110.59 7.40886 110.435 7.34283 110.303 7.23388C110.168 7.12492 110.062 6.96974 109.983 6.76834L109.425 5.36181L109.672 5.26276L110.234 6.66928C110.3 6.83436 110.376 6.95983 110.465 7.04568C110.554 7.13152 110.66 7.17444 110.785 7.18105C110.91 7.18765 111.059 7.15794 111.231 7.0886C111.396 7.02257 111.525 6.94332 111.61 6.85417C111.696 6.76503 111.742 6.65938 111.749 6.53721C111.756 6.41505 111.726 6.26978 111.66 6.10469L111.102 4.69817L111.353 4.59912L111.911 6.00565C111.99 6.20705 112.02 6.39194 112 6.56363C111.98 6.73532 111.911 6.88719 111.795 7.01926C111.68 7.15132 111.528 7.25698 111.333 7.33292H111.326Z" fill="black"/>
<path d="M113.661 6.69903C113.436 6.73535 113.245 6.72874 113.086 6.67922C112.928 6.62969 112.809 6.55045 112.72 6.4448C112.631 6.33584 112.575 6.21368 112.555 6.07501L112.545 6.01558L112.806 5.97266L112.812 6.00897C112.832 6.12123 112.868 6.21698 112.925 6.29292C112.981 6.36886 113.066 6.42169 113.182 6.45141C113.298 6.48112 113.446 6.47782 113.634 6.45141C113.839 6.41839 113.984 6.35895 114.07 6.27641C114.156 6.19056 114.189 6.07831 114.166 5.93964C114.153 5.84719 114.123 5.77126 114.083 5.71843C114.044 5.6656 113.984 5.62598 113.905 5.60287C113.826 5.57976 113.724 5.56325 113.591 5.55335L113.149 5.53023C113.014 5.52363 112.895 5.50381 112.789 5.46419C112.683 5.42788 112.598 5.36845 112.528 5.28921C112.459 5.20996 112.416 5.10762 112.393 4.97555C112.373 4.85669 112.39 4.73782 112.439 4.62556C112.489 4.5133 112.575 4.41756 112.693 4.33502C112.816 4.25248 112.971 4.19635 113.166 4.16663C113.38 4.13361 113.562 4.14352 113.707 4.19635C113.852 4.24917 113.971 4.33172 114.057 4.44397C114.143 4.55623 114.196 4.67839 114.215 4.81376L114.222 4.86328L113.951 4.90621L113.945 4.86659C113.925 4.75103 113.889 4.65528 113.836 4.57934C113.783 4.5034 113.7 4.45057 113.595 4.42086C113.489 4.39114 113.354 4.39115 113.195 4.41426C112.991 4.44728 112.845 4.5034 112.753 4.58925C112.664 4.67179 112.627 4.78075 112.65 4.91282C112.667 5.00857 112.693 5.08121 112.736 5.13073C112.776 5.18026 112.835 5.21657 112.915 5.23968C112.994 5.25949 113.096 5.276 113.222 5.28261L113.657 5.31562C113.803 5.32223 113.928 5.34534 114.031 5.38496C114.136 5.42458 114.222 5.484 114.288 5.56655C114.354 5.64579 114.4 5.75145 114.42 5.88352C114.44 6.00568 114.427 6.12454 114.381 6.24009C114.334 6.35565 114.248 6.45141 114.13 6.53395C114.007 6.61649 113.852 6.67261 113.657 6.70233L113.661 6.69903Z" fill="black"/>
<path d="M116.718 4.3283L114.681 4.25567L114.688 4.01465L116.725 4.08729L116.715 4.3283H116.718ZM115.751 6.55365L115.49 6.54375L115.579 4.04436L115.84 4.05427L115.751 6.55365Z" fill="black"/>
<path d="M118.012 6.91025L117.755 6.84421L118.379 4.42407L118.636 4.49011L118.012 6.91025Z" fill="black"/>
<path d="M119.373 7.41875C119.161 7.32961 119.003 7.22394 118.894 7.10178C118.785 6.97632 118.722 6.84756 118.706 6.70889C118.686 6.57022 118.706 6.43814 118.759 6.30938L118.782 6.25325L119.026 6.35561L119.013 6.38863C118.97 6.49428 118.95 6.59332 118.96 6.68907C118.97 6.78482 119.016 6.87397 119.095 6.95652C119.178 7.04236 119.307 7.1183 119.482 7.19093C119.673 7.27017 119.825 7.29658 119.944 7.27017C120.063 7.24376 120.149 7.16452 120.201 7.03245C120.238 6.9466 120.254 6.86737 120.248 6.80134C120.241 6.7353 120.211 6.66926 120.159 6.60983C120.106 6.5504 120.023 6.48107 119.917 6.40513L119.554 6.1542C119.442 6.07826 119.353 5.99572 119.284 5.90988C119.214 5.82403 119.171 5.72829 119.151 5.62593C119.135 5.52358 119.152 5.41132 119.201 5.28916C119.247 5.1769 119.323 5.08446 119.422 5.01512C119.525 4.94578 119.647 4.90947 119.792 4.90286C119.937 4.89626 120.099 4.93257 120.281 5.00851C120.482 5.09105 120.631 5.19341 120.73 5.31887C120.829 5.44103 120.885 5.5731 120.898 5.71177C120.911 5.85044 120.891 5.98251 120.839 6.11127L120.819 6.1542L120.568 6.04855L120.584 6.00892C120.631 5.89997 120.65 5.80092 120.644 5.70848C120.637 5.61603 120.598 5.53018 120.522 5.44764C120.446 5.3651 120.334 5.29576 120.185 5.23303C119.993 5.15379 119.838 5.12738 119.719 5.15049C119.597 5.1736 119.511 5.24954 119.462 5.3717C119.426 5.46084 119.409 5.53679 119.419 5.60282C119.426 5.66555 119.459 5.72828 119.515 5.78771C119.571 5.84714 119.65 5.91318 119.752 5.98582L120.106 6.24335C120.225 6.32589 120.32 6.41174 120.386 6.50088C120.452 6.59003 120.495 6.68577 120.512 6.78813C120.525 6.89048 120.512 7.00273 120.459 7.1249C120.413 7.24046 120.337 7.3329 120.238 7.40554C120.139 7.47818 120.017 7.5178 119.871 7.52441C119.726 7.53101 119.561 7.49469 119.383 7.41875H119.373Z" fill="black"/>
<path d="M122.014 9.02992C121.832 8.88135 121.707 8.70965 121.641 8.51816C121.575 8.32666 121.568 8.12856 121.621 7.92386C121.674 7.71585 121.783 7.51444 121.948 7.30974C122.113 7.10833 122.291 6.95976 122.486 6.87061C122.678 6.77817 122.876 6.74845 123.074 6.77486C123.272 6.80128 123.463 6.89042 123.648 7.0423C123.803 7.17107 123.919 7.31304 123.988 7.46822C124.061 7.6234 124.084 7.78189 124.061 7.94697C124.038 8.10875 123.965 8.26392 123.846 8.4125L123.827 8.43561L123.609 8.25732L123.632 8.23091C123.77 8.06252 123.83 7.89413 123.807 7.73235C123.784 7.56727 123.671 7.40548 123.47 7.2371C123.318 7.11163 123.17 7.03899 123.028 7.01918C122.886 6.99607 122.74 7.02579 122.598 7.10834C122.456 7.18758 122.311 7.31634 122.166 7.49793C122.021 7.67623 121.921 7.84131 121.869 7.99649C121.816 8.15167 121.816 8.29695 121.865 8.43232C121.915 8.56769 122.017 8.69975 122.169 8.82192C122.371 8.987 122.555 9.06624 122.721 9.05633C122.886 9.04643 123.037 8.95728 123.176 8.7889L123.196 8.76578L123.414 8.94408L123.397 8.96389C123.278 9.10916 123.14 9.21151 122.981 9.26434C122.823 9.31717 122.664 9.32708 122.496 9.28746C122.331 9.24784 122.169 9.16199 122.014 9.03652V9.02992Z" fill="black"/>
<path d="M123.698 10.7964C123.563 10.6148 123.483 10.4233 123.464 10.2219C123.444 10.0205 123.483 9.82243 123.579 9.63093C123.675 9.43943 123.83 9.26444 124.038 9.10926C124.246 8.95078 124.457 8.85173 124.669 8.81211C124.88 8.77249 125.078 8.789 125.266 8.86164C125.454 8.93427 125.616 9.06304 125.752 9.24463C125.89 9.42623 125.966 9.61772 125.986 9.81913C126.006 10.0205 125.966 10.2153 125.867 10.4068C125.771 10.5983 125.616 10.7733 125.408 10.9285C125.2 11.087 124.989 11.186 124.781 11.2257C124.573 11.2653 124.372 11.2488 124.183 11.1794C123.995 11.1068 123.833 10.978 123.698 10.7964ZM123.909 10.6379C124.028 10.7964 124.157 10.9054 124.289 10.9582C124.421 11.011 124.57 11.0209 124.725 10.978C124.883 10.9351 125.055 10.8426 125.24 10.704C125.425 10.5653 125.56 10.4266 125.643 10.2847C125.729 10.146 125.762 10.0007 125.748 9.85874C125.732 9.71347 125.666 9.56159 125.547 9.40311C125.431 9.24793 125.303 9.14228 125.164 9.08284C125.025 9.02341 124.88 9.01682 124.722 9.05974C124.563 9.10266 124.391 9.19511 124.206 9.33378C124.022 9.47245 123.886 9.61113 123.804 9.7531C123.718 9.89177 123.685 10.037 123.705 10.1856C123.724 10.3342 123.79 10.4861 123.909 10.6379Z" fill="black"/>
<path d="M124.692 12.2656L124.586 12.0213L126.881 11.0242L126.996 11.2916L125.917 12.9821L125.662 13.3816L125.672 13.4047L126.032 13.2495L127.558 12.5859L127.663 12.8269L125.369 13.824L125.253 13.5599L126.329 11.8595L126.577 11.4633L126.57 11.4468L126.217 11.5987L124.692 12.2623V12.2656Z" fill="black"/>
<path d="M125.662 15.3196C125.62 15.0885 125.636 14.8772 125.709 14.689C125.781 14.5008 125.903 14.3457 126.078 14.2202C126.25 14.0947 126.468 14.0089 126.722 13.9627C126.98 13.9164 127.211 13.9197 127.416 13.9726C127.62 14.0287 127.792 14.1277 127.927 14.2796C128.063 14.4282 128.152 14.6197 128.195 14.8541C128.231 15.0522 128.228 15.2338 128.182 15.3989C128.135 15.564 128.053 15.7026 127.931 15.8116C127.809 15.9206 127.653 15.9932 127.468 16.0262L127.439 16.0328L127.386 15.7555L127.419 15.7489C127.634 15.7092 127.785 15.6201 127.875 15.4814C127.964 15.3395 127.984 15.1414 127.937 14.8871C127.901 14.6923 127.835 14.5438 127.739 14.4348C127.643 14.3258 127.515 14.2565 127.356 14.2268C127.194 14.1971 127.003 14.2037 126.775 14.2433C126.551 14.2829 126.369 14.3489 126.227 14.4315C126.088 14.5173 125.993 14.6263 125.943 14.7617C125.894 14.897 125.887 15.0621 125.923 15.2536C125.969 15.5111 126.059 15.6894 126.191 15.7885C126.323 15.8875 126.498 15.9173 126.712 15.8776L126.742 15.871L126.792 16.1484H126.765C126.58 16.188 126.409 16.1748 126.253 16.1154C126.098 16.0559 125.969 15.9569 125.867 15.8182C125.765 15.6795 125.699 15.5111 125.662 15.313V15.3196Z" fill="black"/>
<path d="M125.88 16.9572L125.89 16.6931L128.39 16.7889L128.35 17.8058C128.343 17.9775 128.31 18.1261 128.248 18.2548C128.188 18.3836 128.099 18.4793 127.987 18.5487C127.875 18.618 127.743 18.6477 127.587 18.6444C127.445 18.6378 127.323 18.6048 127.224 18.5388C127.122 18.4727 127.046 18.3836 126.996 18.2713C126.947 18.1591 126.92 18.027 126.924 17.8751H126.901C126.877 17.9511 126.838 18.0171 126.785 18.0699C126.732 18.1227 126.663 18.1723 126.58 18.2119L125.814 18.6081L125.828 18.2977L126.544 17.918C126.617 17.885 126.679 17.8421 126.729 17.7959C126.778 17.7497 126.815 17.6902 126.841 17.6242C126.868 17.5549 126.881 17.4657 126.884 17.3568L126.897 16.9936L125.88 16.954V16.9572ZM128.135 17.0431L127.125 17.0035L127.095 17.7959C127.089 17.9841 127.122 18.1261 127.201 18.2218C127.277 18.3175 127.406 18.3671 127.581 18.3737C127.752 18.3803 127.881 18.3407 127.967 18.2515C128.053 18.1624 128.099 18.0237 128.106 17.8355L128.135 17.0431Z" fill="black"/>
<path d="M125.345 20.5595L125.728 19.011L125.966 19.0704L125.583 20.6189L125.345 20.5595ZM125.682 19.1794L125.745 18.9219L128.172 19.5195L128.109 19.777L125.682 19.1794ZM126.458 20.7741L126.828 19.2818L127.066 19.3412L126.696 20.8336L126.458 20.7741ZM127.534 21.0977L127.917 19.5492L128.152 19.6086L127.769 21.1538L127.534 21.0944V21.0977Z" fill="black"/>
<path d="M124.784 21.8306L124.896 21.5962L127.155 22.6659L127.042 22.9004L124.784 21.8306ZM126.442 23.6003L127.316 21.758L127.534 21.8603L126.663 23.7027L126.445 23.6003H126.442Z" fill="black"/>
<path d="M123.265 24.178L124.21 22.8937L124.408 23.039L123.463 24.3233L123.265 24.178ZM124.107 23.0357L124.262 22.821L126.277 24.3035L126.118 24.5181L124.104 23.0357H124.107ZM124.213 24.8054L125.124 23.5672L125.322 23.7125L124.411 24.9506L124.213 24.8054ZM125.085 25.5152L126.029 24.2309L126.224 24.3761L125.279 25.6605L125.085 25.5152Z" fill="black"/>
<path d="M118.032 22.7617V20.6751C118.032 19.4171 117.118 18.3804 115.995 17.8686V16.5347C115.995 15.8975 115.589 15.3527 115.021 15.1381V12.0378H114.011V15.115C113.406 15.3098 112.967 15.8744 112.967 16.5381V17.8719C111.845 18.387 110.93 19.4303 110.93 20.6982V22.7353L108.91 23.6499V32.5711H109.92V24.3003L114.489 22.2302L119.042 24.3433V32.5711H120.053V23.6994L118.032 22.7617ZM113.978 16.5347C113.978 16.2706 114.209 16.0494 114.483 16.0494C114.757 16.0494 114.988 16.2706 114.988 16.5347V17.5616C114.82 17.5352 114.651 17.522 114.483 17.522C114.314 17.522 114.146 17.5352 113.978 17.5616V16.5315V16.5347ZM117.022 22.2929L115.995 21.8175V19.8067C115.803 19.5723 115.49 19.3214 114.985 19.1827V21.3453L114.493 21.1175L113.978 21.3519V19.2025C113.42 19.3511 113.123 19.6218 112.967 19.8562V21.8109L111.94 22.2764V20.6949C111.94 19.4964 113.331 18.5323 114.483 18.5323C115.635 18.5323 117.025 19.4865 117.025 20.6718V22.2896L117.022 22.2929Z" fill="#F04923"/>
<path d="M118.032 22.7617V20.6751C118.032 19.4171 117.118 18.3804 115.995 17.8686V16.5347C115.995 15.8975 115.589 15.3527 115.021 15.1381V12.0378H114.48V16.0494C114.754 16.0494 114.985 16.2706 114.985 16.5347V17.5616C114.816 17.5352 114.648 17.522 114.48 17.522V18.5323C115.632 18.5323 117.022 19.4865 117.022 20.6718V22.2896L115.995 21.8142V19.8034C115.804 19.569 115.49 19.3181 114.985 19.1794V21.342L114.493 21.1142V22.2269L119.043 24.34V32.5678H120.053V23.6961L118.032 22.7584V22.7617Z" fill="#F04923"/>
<path d="M117.022 32.5709H118.032V24.6369L117.022 24.1648V32.5709Z" fill="#F04923"/>
<path d="M114.985 32.571H115.995V23.6894L114.985 23.2206V32.571Z" fill="#F04923"/>
<path d="M112.967 32.571H113.978V23.257L112.967 23.7159V32.571Z" fill="#F04923"/>
<path d="M110.93 32.5709H111.941V24.1813L110.93 24.6402V32.5709Z" fill="#F04923"/>
<path d="M114.985 32.571H115.995V23.6894L114.985 23.2206V32.571Z" fill="#F04923"/>
<path d="M37.6755 23.4584L37.2826 24.614L39.848 25.8389L42.3903 24.6074L41.9974 23.4551L39.848 24.4885L37.6755 23.4584Z" fill="#F04923"/>
<path d="M41.4395 21.8207L39.8415 22.5834L38.2336 21.824L37.7977 23.1017L39.8481 24.079L41.8753 23.1017L41.4395 21.8207Z" fill="#F04923"/>
<path d="M39.8415 22.1806L41.3174 21.4708L39.8316 17.1224L38.3524 21.4708L39.8415 22.1806Z" fill="#F04923"/>
<path d="M42.5126 24.9641L39.8481 26.2518L37.1638 24.9674L36.7445 26.1989L39.8679 27.8267L42.9352 26.2022L42.5126 24.9641Z" fill="#F04923"/>
<path d="M39.8514 24.4853V25.8357L42.3838 24.6108L41.9909 23.4585L39.8514 24.4886V24.4853Z" fill="#B23225"/>
<path d="M41.8688 23.105L41.433 21.824L39.8448 22.5801L39.8482 24.079H39.8515L41.8688 23.105Z" fill="#B23225"/>
<path d="M39.8446 22.1773L41.3139 21.4708L39.8347 17.1224V17.5517L39.8446 22.1773Z" fill="#B23225"/>
<path d="M42.5027 24.9673L39.8547 26.2516L39.858 27.8233L42.922 26.1988L42.5027 24.9673Z" fill="#B23225"/>
<path d="M130.357 3.27858C130.11 3.27858 129.885 3.23896 129.677 3.15972C129.469 3.08048 129.288 2.96492 129.132 2.81965C128.977 2.67437 128.858 2.49938 128.776 2.29798C128.69 2.09657 128.65 1.87866 128.65 1.63764C128.65 1.39661 128.693 1.1754 128.776 0.977298C128.862 0.775895 128.981 0.604205 129.132 0.45893C129.284 0.313656 129.469 0.198097 129.677 0.118856C129.885 0.0396155 130.113 0 130.357 0C130.602 0 130.833 0.0396155 131.041 0.118856C131.249 0.198097 131.43 0.313656 131.582 0.45893C131.734 0.604205 131.856 0.779197 131.939 0.977298C132.025 1.1787 132.068 1.39661 132.068 1.63764C132.068 1.87866 132.025 2.09987 131.939 2.29798C131.853 2.49938 131.734 2.67107 131.582 2.81965C131.43 2.96822 131.249 3.08048 131.041 3.15972C130.833 3.23896 130.605 3.27858 130.357 3.27858ZM130.357 3.07057C130.628 3.07057 130.869 3.01114 131.077 2.88898C131.285 2.77012 131.447 2.60173 131.566 2.38382C131.685 2.16591 131.744 1.91828 131.744 1.63433C131.744 1.35039 131.685 1.10276 131.566 0.884851C131.447 0.670241 131.285 0.501855 131.077 0.379693C130.869 0.260832 130.628 0.198104 130.357 0.198104C130.087 0.198104 129.846 0.25753 129.638 0.379693C129.43 0.498554 129.268 0.66694 129.149 0.884851C129.03 1.09946 128.971 1.35039 128.971 1.63433C128.971 1.91828 129.03 2.16591 129.149 2.38382C129.268 2.59843 129.43 2.76682 129.638 2.88898C129.846 3.00784 130.087 3.07057 130.357 3.07057ZM131.061 2.61824C130.945 2.61824 130.843 2.58522 130.763 2.52249C130.681 2.45976 130.589 2.3475 130.489 2.18241L130.179 1.68387H130.087V2.58522H129.681V0.957489C129.681 0.871645 129.674 0.802308 129.657 0.749481C129.641 0.696654 129.605 0.670243 129.542 0.670243H129.459V0.597606H130.258C130.4 0.597606 130.532 0.614109 130.655 0.643824C130.777 0.673539 130.879 0.729671 130.958 0.812214C131.038 0.894756 131.077 1.01032 131.077 1.15559C131.077 1.26125 131.054 1.34709 131.004 1.41312C130.958 1.48246 130.896 1.53198 130.823 1.5716C130.75 1.60792 130.674 1.63763 130.602 1.65414L130.915 2.1626C130.985 2.27486 131.051 2.35741 131.107 2.41684C131.163 2.47627 131.229 2.50929 131.302 2.51919V2.58522C131.302 2.58522 131.282 2.59513 131.242 2.60503C131.203 2.61494 131.143 2.61824 131.061 2.61824ZM130.242 1.54849C130.354 1.54849 130.45 1.51878 130.522 1.45605C130.595 1.39332 130.635 1.28766 130.635 1.13578C130.635 0.983905 130.598 0.881549 130.522 0.822118C130.45 0.759386 130.354 0.729671 130.242 0.729671C130.215 0.729671 130.196 0.729671 130.179 0.729671C130.163 0.729671 130.146 0.729671 130.13 0.729671C130.123 0.729671 130.116 0.732976 130.106 0.732976H130.083V1.53198C130.083 1.53198 130.103 1.53529 130.11 1.53529H130.133C130.133 1.53529 130.166 1.53859 130.182 1.53859H130.239L130.242 1.54849Z" fill="#231F20"/>
</svg>
