<svg width="200" height="61" viewBox="0 0 200 61" fill="none" xmlns="http://www.w3.org/2000/svg">
<path d="M19.7247 38.484C19.2447 38.484 18.6497 38.389 17.9497 38.204C17.2497 38.019 16.5597 37.624 15.8797 37.019C15.1997 36.4141 14.6198 35.4791 14.1348 34.2091L13.3148 32.0741H4.10995L1.47999 38.319H0L9.20483 16.6194H10.1898L17.4247 34.2091C17.9497 35.4391 18.4547 36.294 18.9347 36.789C19.4147 37.284 20.1197 37.574 21.0396 37.659V38.319C20.6447 38.429 20.2047 38.484 19.7247 38.484ZM4.60493 30.7591H12.6598L8.71485 21.2243L4.60493 30.7591Z" fill="white"/>
<path d="M39.2242 38.649L25.0844 21.0593V38.319H23.7694V20.5643C23.7694 19.5793 23.5594 18.7843 23.1444 18.1793C22.7294 17.5744 21.9495 17.2744 20.8095 17.2744H20.4795V16.6144H22.6144C23.6894 16.6144 24.5694 16.7894 25.2594 17.1394C25.9494 17.4894 26.5444 17.9743 27.0494 18.5843L38.5592 32.8841V16.6094H39.8741V38.639H39.2192L39.2242 38.649Z" fill="white"/>
<path d="M42.3792 42.8239V42.1639C43.4541 42.1639 44.2441 41.594 44.7491 40.454C45.2541 39.314 45.5041 37.749 45.5041 35.754V16.6194H48.464V35.754C48.464 37.399 48.289 38.739 47.9391 39.784C47.5891 40.824 46.9741 41.594 46.0991 42.084C45.2241 42.5789 43.9841 42.8239 42.3842 42.8239H42.3792Z" fill="white"/>
<path d="M90.9383 38.649L76.8035 21.0593V38.319H75.4885V20.5643C75.4885 19.5793 75.2785 18.7843 74.8635 18.1793C74.4485 17.5744 73.6686 17.2744 72.5286 17.2744H72.1986V16.6144H74.3336C75.4085 16.6144 76.2885 16.7894 76.9785 17.1394C77.6685 17.4894 78.2685 17.9743 78.7685 18.5843L90.2733 32.8841V16.6094H91.5883V38.639H90.9283L90.9383 38.649Z" fill="white"/>
<path d="M97.8783 38.324V20.5693C97.8783 19.5843 97.7433 18.7893 97.4683 18.1844C97.1933 17.5794 96.5633 17.2794 95.5783 17.2794H94.9183V16.6194H108.923C109.688 16.6194 110.273 16.7444 110.668 16.9994C111.063 17.2494 111.338 17.5794 111.488 17.9844C111.643 18.3894 111.718 18.8144 111.718 19.2493V21.7143H111.058C111.058 20.3993 110.703 19.4393 109.988 18.8393C109.278 18.2344 108.263 17.9344 106.948 17.9344H100.833V26.4842H109.708V27.7992H100.833V37.004H106.588C108.078 37.004 109.258 36.729 110.123 36.184C110.988 35.6391 111.673 34.7041 112.178 33.3891L112.838 33.5541L111.688 36.6791C111.513 37.184 111.223 37.584 110.818 37.879C110.413 38.174 109.883 38.324 109.223 38.324H97.8783Z" fill="white"/>
<path d="M123.328 38.3241V29.3493L117.738 20.8994C117.058 19.9344 116.383 19.1145 115.718 18.4345C115.048 17.7545 114.133 17.3695 112.973 17.2845V16.6245H115.933C116.743 16.6245 117.448 16.7995 118.053 17.1495C118.658 17.4995 119.183 17.9495 119.633 18.4995C120.083 19.0495 120.493 19.6295 120.868 20.2444L125.633 27.6443L132.502 16.6295H133.982L126.288 29.1243V38.3291H123.328V38.3241Z" fill="white"/>
<path d="M27.2143 60.4538H26.2743C26.2143 60.2738 26.1793 59.9188 26.1643 59.3838C25.7843 59.9838 25.0443 60.5738 23.6044 60.5738C21.1994 60.5738 19.9094 58.7488 19.9094 56.3788C19.9094 53.8839 21.2944 52.0039 23.8293 52.0039C25.8043 52.0039 27.0343 53.0839 27.2643 54.5589H26.0293C25.7693 53.6989 25.1393 53.0189 23.8094 53.0189C21.9144 53.0189 21.2044 54.5439 21.2044 56.3238C21.2044 57.9888 21.9394 59.5538 23.7794 59.5538C25.6193 59.5538 26.0143 58.3438 26.0143 57.0638V56.9788H23.7644V55.9338H27.2193V60.4638L27.2143 60.4538Z" fill="white"/>
<path d="M30.6444 52.1189H31.8794V59.4087H36.1893L36.0243 60.4537H30.6394V52.1189H30.6444Z" fill="white"/>
<path d="M45.9592 56.2438C45.9592 58.5438 44.6542 60.5737 42.0142 60.5737C39.5293 60.5737 38.1593 58.6788 38.1593 56.2838C38.1593 53.8888 39.5793 51.9939 42.1142 51.9939C44.4792 51.9939 45.9592 53.7439 45.9592 56.2388V56.2438ZM39.4493 56.2488C39.4493 58.0188 40.3343 59.5287 42.0642 59.5287C43.9342 59.5287 44.6692 57.9838 44.6692 56.2588C44.6692 54.5338 43.8392 53.0389 42.0642 53.0389C40.2893 53.0389 39.4543 54.4988 39.4543 56.2488H39.4493Z" fill="white"/>
<path d="M49.1041 52.1189H52.3891C54.199 52.1189 55.009 53.0689 55.009 54.2089C55.009 55.1738 54.464 55.7988 53.839 56.0238C54.419 56.2138 55.279 56.8038 55.279 58.0038C55.279 59.5487 54.094 60.4537 52.4791 60.4537H49.1091V52.1189H49.1041ZM52.174 55.5538C53.314 55.5538 53.764 55.0938 53.764 54.3238C53.764 53.6089 53.2491 53.1239 52.3241 53.1239H50.3191V55.5538H52.1791H52.174ZM50.3141 59.4488H52.2891C53.3241 59.4488 53.994 58.9738 53.994 57.9888C53.994 57.1288 53.439 56.5538 52.1141 56.5538H50.3091V59.4488H50.3141Z" fill="white"/>
<path d="M59.6337 58.0638L58.7837 60.4537H57.5537L60.4937 52.1189H62.0236L65.0936 60.4537H63.7786L62.8986 58.0638H59.6237H59.6337ZM62.6036 57.0138C61.8487 54.9038 61.4236 53.7488 61.2386 53.0939H61.2287C61.0237 53.8238 60.5487 55.2138 59.9437 57.0138H62.6086H62.6036Z" fill="white"/>
<path d="M67.7988 52.1189H69.0338V59.4087H73.3437L73.1787 60.4537H67.7938V52.1189H67.7988Z" fill="white"/>
<path d="M81.7033 56.8487V60.4587H80.4834V52.1238H83.8183C85.5483 52.1238 86.4783 53.0688 86.4783 54.3638C86.4783 55.4537 85.8583 56.0987 85.0983 56.3287C85.7283 56.5037 86.3283 56.9987 86.3283 58.4537V58.8237C86.3283 59.3937 86.3083 60.1037 86.4433 60.4637H85.2483C85.0983 60.1037 85.1033 59.4587 85.1033 58.6587V58.4937C85.1033 57.3587 84.7883 56.8587 83.3233 56.8587H81.7184L81.7033 56.8487ZM81.7033 55.8187H83.4583C84.6783 55.8187 85.2033 55.3587 85.2033 54.4687C85.2033 53.5788 84.6533 53.1438 83.5683 53.1438H81.7033V55.8187Z" fill="white"/>
<path d="M95.0583 56.6137H90.9434V59.4036H95.4683L95.3133 60.4486H89.7384V52.1138H95.2583V53.1587H90.9484V55.5587H95.0633V56.6037L95.0583 56.6137Z" fill="white"/>
<path d="M99.8332 58.0638L98.9833 60.4537H97.7533L100.693 52.1189H102.223L105.293 60.4537H103.978L103.098 58.0638H99.8233H99.8332ZM102.803 57.0138C102.048 54.9038 101.623 53.7488 101.438 53.0939H101.428C101.223 53.8238 100.748 55.2138 100.143 57.0138H102.808H102.803Z" fill="white"/>
<path d="M107.998 52.1189H109.233V59.4087H113.543L113.378 60.4537H107.993V52.1189H107.998Z" fill="white"/>
<path d="M116.638 53.1688H113.978V52.1238H120.548V53.1688H117.883V60.4587H116.638V53.1688Z" fill="white"/>
<path d="M125.698 60.4537V57.4188C125.698 57.3338 125.678 57.2538 125.638 57.1888L122.713 52.1189H124.123C124.858 53.4539 125.998 55.5138 126.383 56.2788C126.743 55.5288 127.923 53.4389 128.683 52.1189H129.998L126.993 57.1988C126.963 57.2538 126.943 57.2938 126.943 57.4238V60.4587H125.698V60.4537Z" fill="white"/>
<path d="M65.0337 32.0741L65.8537 34.2091C66.3337 35.4791 66.9187 36.4191 67.5987 37.019C68.2787 37.624 68.9687 38.019 69.6687 38.204C70.3687 38.389 70.9636 38.484 71.4436 38.484C71.9236 38.484 72.3636 38.429 72.7586 38.319V37.659C71.8386 37.574 71.1386 37.279 70.6536 36.789C70.1737 36.294 69.6687 35.4341 69.1437 34.2091L61.8138 16.6194H59.6988L50.589 38.319H53.199L55.8289 32.0741M55.8289 32.0741L60.3338 21.2243L65.0337 32.0741" fill="white"/>
<path d="M135.708 35.5242C137.797 31.3893 139.362 26.5394 141.302 22.3595C141.002 20.6345 138.972 18.1245 137.142 18.0045C136.497 17.9645 135.858 18.4245 135.293 18.1245C141.022 14.7296 144.392 19.0645 146.617 23.8494C150.477 32.1343 151.407 40.4141 160.037 45.5341C174.647 54.2089 194.801 46.319 197.411 29.0893C200.286 10.0947 180.227 -4.00009 163.207 4.91476C161.792 5.65475 156.477 9.46968 155.967 10.7297C155.827 11.0797 156.127 11.6946 156.052 12.2796C155.907 13.4096 155.252 14.2346 154.847 15.2346L154.477 14.7346L152.467 16.9895L151.972 16.4896C150.602 17.7795 148.102 18.3895 146.577 17.1145C147.607 17.2045 148.662 17.2196 149.582 16.6096C150.307 16.1346 149.267 16.3946 149.337 15.9896C151.512 15.2646 151.082 11.8646 152.832 10.5797C153.737 9.91468 154.487 10.4647 155.107 10.0947C155.427 9.90468 157.432 7.42972 158.112 6.82973C179.357 -11.7249 210.606 13.9896 196.436 38.6342C184.822 58.8288 152.337 55.2039 145.552 33.0693L138.807 33.1593C138.622 33.2743 137.082 36.8692 137.077 37.1742C137.062 38.2942 138.112 38.0992 138.562 38.8042H132.528C132.343 38.8042 132.308 38.5542 132.478 38.4892C132.758 38.3842 133.013 38.2642 133.253 38.1292C134.318 37.5342 135.168 36.6092 135.718 35.5192L135.708 35.5242ZM139.307 31.7843H144.822C144.312 29.6143 143.442 27.4244 142.627 25.3144C142.507 24.9994 142.742 24.6494 142.187 24.7594L139.302 31.7843H139.307Z" fill="#F04923"/>
<path d="M160.137 33.2791L160.367 33.819L157.262 36.189L157.087 35.774L159.117 34.219L159.882 33.7041L159.872 33.679L158.942 33.804L156.357 34.044L156.142 33.539L158.117 31.8491L158.847 31.2741L158.832 31.2441L157.932 31.4241L155.402 31.8091L155.227 31.3991L159.092 30.8191L159.317 31.3491L157.632 32.8091L156.692 33.5941L156.707 33.6241L157.927 33.494L160.142 33.2841L160.137 33.2791Z" fill="white"/>
<path d="M158.372 26.5393L158.422 26.9393L154.667 27.4193L154.617 27.0193L158.372 26.5393ZM158.692 29.0643L158.742 29.4593L154.987 29.9393L154.937 29.5393L158.692 29.0593V29.0643ZM156.682 26.9793L157.007 29.5293L156.647 29.5743L156.322 27.0243L156.682 26.9793Z" fill="white"/>
<path d="M158.422 25.3895L158.387 25.7895L154.617 25.4545L154.652 25.0545L158.422 25.3845V25.3895ZM155.202 22.9496L154.992 25.3545L154.627 25.3195L154.837 22.9146L155.202 22.9445V22.9496ZM156.892 23.1846L156.687 25.5045L156.317 25.4745L156.522 23.1546L156.892 23.1896V23.1846ZM158.607 23.2496L158.397 25.6545L158.027 25.6195L158.237 23.2145L158.607 23.2496Z" fill="white"/>
<path d="M158.832 22.3044L158.717 22.6894L155.092 21.6044L155.532 20.1245C155.607 19.8745 155.712 19.6695 155.847 19.5045C155.987 19.3395 156.147 19.2295 156.337 19.1695C156.527 19.1095 156.732 19.1145 156.957 19.1795C157.162 19.2395 157.327 19.3395 157.452 19.4695C157.577 19.6045 157.652 19.7595 157.682 19.9445C157.712 20.1295 157.702 20.3345 157.642 20.5545L157.677 20.5645C157.737 20.4595 157.822 20.3795 157.922 20.3195C158.022 20.2595 158.142 20.2145 158.277 20.1845L159.547 19.8945L159.412 20.3445L158.217 20.6295C158.097 20.6495 157.992 20.6895 157.902 20.7395C157.812 20.7895 157.737 20.8595 157.672 20.9495C157.607 21.0395 157.552 21.1645 157.507 21.3244L157.352 21.8494L158.832 22.2894V22.3044ZM155.557 21.3244L157.027 21.7644L157.372 20.6095C157.452 20.3345 157.457 20.1145 157.382 19.9445C157.302 19.7745 157.137 19.6545 156.882 19.5795C156.632 19.5045 156.427 19.5145 156.272 19.6145C156.112 19.7145 155.992 19.8995 155.912 20.1745L155.567 21.3295L155.557 21.3244Z" fill="white"/>
<path d="M159.957 19.1095L159.767 19.4645L156.432 17.6745L156.622 17.3195L159.957 19.1095ZM157.962 15.5995L156.822 17.7245L156.497 17.5495L157.637 15.4246L157.962 15.5995ZM159.417 16.4795L158.317 18.5295L157.987 18.3545L159.087 16.3045L159.417 16.4795ZM160.972 17.2145L159.832 19.3395L159.502 19.1645L160.642 17.0395L160.972 17.2145Z" fill="white"/>
<path d="M161.552 11.3395L159.412 13.5594L159.147 13.3044L161.287 11.0845L161.552 11.3395ZM163.077 14.6794L162.802 14.9644L160.077 12.3395L160.352 12.0545L163.077 14.6794Z" fill="white"/>
<path d="M164.627 13.2695L164.297 13.4945L162.152 10.3746L163.422 9.49957C163.637 9.35458 163.847 9.25958 164.057 9.21958C164.267 9.17958 164.467 9.19458 164.652 9.26958C164.837 9.34458 164.997 9.47457 165.127 9.66957C165.247 9.84957 165.317 10.0246 165.327 10.2096C165.342 10.3896 165.302 10.5645 165.207 10.7245C165.117 10.8895 164.977 11.0396 164.792 11.1745L164.812 11.2045C164.927 11.1645 165.037 11.1495 165.152 11.1695C165.267 11.1845 165.387 11.2245 165.512 11.2845L166.687 11.8545L166.302 12.1195L165.192 11.5945C165.082 11.5345 164.977 11.4995 164.877 11.4795C164.777 11.4595 164.672 11.4695 164.567 11.4995C164.462 11.5295 164.337 11.5945 164.202 11.6895L163.752 11.9995L164.627 13.2695ZM162.687 10.4546L163.557 11.7145L164.547 11.0346C164.782 10.8746 164.922 10.6996 164.967 10.5196C165.012 10.3396 164.957 10.1396 164.807 9.91957C164.662 9.70457 164.492 9.58458 164.307 9.56458C164.122 9.54458 163.912 9.60957 163.677 9.77456L162.687 10.4546Z" fill="white"/>
<path d="M168.587 11.1045C168.287 11.2245 168.002 11.2695 167.737 11.2445C167.472 11.2195 167.237 11.1195 167.037 10.9545C166.832 10.7895 166.672 10.5545 166.552 10.2495L165.707 8.11958L166.082 7.96959L166.932 10.0995C167.032 10.3495 167.147 10.5395 167.282 10.6695C167.417 10.7995 167.577 10.8645 167.767 10.8745C167.957 10.8845 168.182 10.8395 168.442 10.7345C168.692 10.6345 168.887 10.5145 169.017 10.3795C169.147 10.2445 169.217 10.0845 169.227 9.89955C169.237 9.71455 169.192 9.49455 169.092 9.24456L168.247 7.11459L168.627 6.9646L169.472 9.09457C169.592 9.39956 169.637 9.67956 169.607 9.93955C169.577 10.1995 169.472 10.4295 169.297 10.6295C169.122 10.8295 168.892 10.9895 168.597 11.1045H168.587Z" fill="white"/>
<path d="M172.122 10.1448C171.782 10.1998 171.492 10.1898 171.252 10.1148C171.012 10.0398 170.832 9.91979 170.697 9.75979C170.562 9.59479 170.477 9.4098 170.447 9.1998L170.432 9.10981L170.827 9.04481L170.837 9.0998C170.867 9.26979 170.922 9.4148 171.007 9.5298C171.092 9.6448 171.222 9.7248 171.397 9.7698C171.572 9.8148 171.797 9.8098 172.082 9.7698C172.392 9.7198 172.612 9.62979 172.742 9.50479C172.872 9.37479 172.922 9.2048 172.887 8.9948C172.867 8.85481 172.822 8.73982 172.762 8.65982C172.702 8.57982 172.612 8.51982 172.492 8.48482C172.372 8.44982 172.217 8.42482 172.017 8.40982L171.347 8.37482C171.142 8.36482 170.962 8.33481 170.802 8.27481C170.642 8.21982 170.512 8.12982 170.407 8.00982C170.302 7.88982 170.237 7.73483 170.202 7.53484C170.172 7.35484 170.197 7.17483 170.272 7.00483C170.347 6.83484 170.477 6.68985 170.657 6.56485C170.842 6.43985 171.077 6.35485 171.372 6.30985C171.697 6.25985 171.972 6.27485 172.192 6.35485C172.412 6.43485 172.592 6.55985 172.722 6.72984C172.852 6.89984 172.932 7.08483 172.962 7.28983L172.972 7.36483L172.562 7.42983L172.552 7.36983C172.522 7.19483 172.467 7.04984 172.387 6.93484C172.307 6.81984 172.182 6.73984 172.022 6.69484C171.862 6.64984 171.657 6.64985 171.417 6.68485C171.107 6.73484 170.887 6.81984 170.747 6.94984C170.612 7.07484 170.557 7.23984 170.592 7.43984C170.617 7.58484 170.657 7.69483 170.722 7.76983C170.782 7.84483 170.872 7.89982 170.992 7.93482C171.112 7.96482 171.267 7.98983 171.457 7.99983L172.117 8.04983C172.337 8.05983 172.527 8.09482 172.682 8.15482C172.842 8.21482 172.972 8.30481 173.072 8.42981C173.172 8.54981 173.242 8.70982 173.272 8.90981C173.302 9.09481 173.282 9.2748 173.212 9.4498C173.142 9.62479 173.012 9.7698 172.832 9.8948C172.647 10.0198 172.412 10.1048 172.117 10.1498L172.122 10.1448Z" fill="white"/>
<path d="M176.752 6.55457L173.667 6.44457L173.677 6.07959L176.762 6.18959L176.747 6.55457H176.752ZM175.287 9.92452L174.892 9.90953L175.027 6.12459L175.422 6.13959L175.287 9.92452Z" fill="white"/>
<path d="M178.712 10.4646L178.322 10.3646L179.267 6.69971L179.657 6.79971L178.712 10.4646Z" fill="white"/>
<path d="M180.772 11.2347C180.452 11.0997 180.212 10.9397 180.047 10.7547C179.882 10.5647 179.787 10.3697 179.762 10.1597C179.732 9.9497 179.762 9.74969 179.842 9.55469L179.877 9.4697L180.247 9.6247L180.227 9.6747C180.162 9.8347 180.132 9.98468 180.147 10.1297C180.162 10.2747 180.232 10.4097 180.352 10.5347C180.477 10.6647 180.672 10.7797 180.937 10.8897C181.227 11.0097 181.457 11.0497 181.637 11.0097C181.817 10.9697 181.947 10.8497 182.027 10.6497C182.082 10.5197 182.107 10.3997 182.097 10.2997C182.087 10.1997 182.042 10.0997 181.962 10.0097C181.882 9.91969 181.757 9.81469 181.597 9.6997L181.047 9.3197C180.877 9.2047 180.742 9.07971 180.637 8.94971C180.532 8.81971 180.467 8.67472 180.437 8.51972C180.412 8.36473 180.437 8.19472 180.512 8.00972C180.582 7.83972 180.697 7.69973 180.847 7.59474C181.002 7.48974 181.187 7.43474 181.407 7.42474C181.627 7.41474 181.872 7.46973 182.147 7.58473C182.452 7.70972 182.677 7.86472 182.827 8.05472C182.977 8.23972 183.062 8.43971 183.082 8.64971C183.102 8.85971 183.072 9.0597 182.992 9.2547L182.962 9.3197L182.582 9.15971L182.607 9.0997C182.677 8.9347 182.707 8.78472 182.697 8.64472C182.687 8.50472 182.627 8.37472 182.512 8.24972C182.397 8.12473 182.227 8.01973 182.002 7.92473C181.712 7.80473 181.477 7.76473 181.297 7.79973C181.112 7.83473 180.982 7.94972 180.907 8.13472C180.852 8.26972 180.827 8.38472 180.842 8.48472C180.852 8.57972 180.902 8.67472 180.987 8.76471C181.072 8.85471 181.192 8.95471 181.347 9.06471L181.882 9.4547C182.062 9.5797 182.207 9.7097 182.307 9.8447C182.407 9.97969 182.472 10.1247 182.497 10.2797C182.517 10.4347 182.497 10.6047 182.417 10.7897C182.347 10.9647 182.232 11.1047 182.082 11.2147C181.932 11.3247 181.747 11.3847 181.527 11.3947C181.307 11.4047 181.057 11.3497 180.787 11.2347H180.772Z" fill="white"/>
<path d="M184.772 13.6745C184.497 13.4495 184.307 13.1895 184.207 12.8995C184.107 12.6096 184.097 12.3096 184.177 11.9996C184.257 11.6846 184.422 11.3796 184.672 11.0696C184.922 10.7646 185.192 10.5396 185.487 10.4046C185.777 10.2646 186.077 10.2196 186.377 10.2596C186.677 10.2996 186.967 10.4346 187.247 10.6646C187.482 10.8596 187.657 11.0746 187.762 11.3096C187.872 11.5446 187.907 11.7846 187.872 12.0346C187.837 12.2796 187.727 12.5146 187.547 12.7395L187.517 12.7746L187.187 12.5046L187.222 12.4646C187.432 12.2096 187.522 11.9546 187.487 11.7096C187.452 11.4596 187.282 11.2146 186.977 10.9596C186.747 10.7696 186.522 10.6596 186.307 10.6296C186.092 10.5946 185.872 10.6396 185.657 10.7646C185.442 10.8846 185.222 11.0796 185.002 11.3546C184.782 11.6246 184.632 11.8746 184.552 12.1096C184.472 12.3446 184.472 12.5646 184.547 12.7696C184.622 12.9746 184.777 13.1746 185.007 13.3595C185.312 13.6095 185.592 13.7295 185.842 13.7145C186.092 13.6995 186.322 13.5645 186.532 13.3095L186.562 13.2745L186.892 13.5445L186.867 13.5745C186.687 13.7945 186.477 13.9495 186.237 14.0295C185.997 14.1095 185.757 14.1245 185.502 14.0645C185.252 14.0045 185.007 13.8745 184.772 13.6845V13.6745Z" fill="white"/>
<path d="M187.322 16.3494C187.117 16.0745 186.997 15.7845 186.967 15.4795C186.937 15.1745 186.997 14.8745 187.142 14.5845C187.287 14.2945 187.522 14.0295 187.837 13.7945C188.152 13.5545 188.472 13.4045 188.792 13.3445C189.112 13.2845 189.412 13.3095 189.697 13.4195C189.982 13.5295 190.227 13.7245 190.432 13.9995C190.642 14.2745 190.757 14.5645 190.787 14.8695C190.817 15.1745 190.757 15.4695 190.607 15.7595C190.462 16.0495 190.227 16.3145 189.912 16.5495C189.597 16.7895 189.277 16.9394 188.962 16.9994C188.647 17.0594 188.342 17.0344 188.057 16.9294C187.772 16.8194 187.527 16.6244 187.322 16.3494ZM187.642 16.1095C187.822 16.3495 188.017 16.5145 188.217 16.5945C188.417 16.6745 188.642 16.6895 188.877 16.6245C189.117 16.5595 189.377 16.4194 189.657 16.2095C189.937 15.9995 190.142 15.7895 190.267 15.5745C190.397 15.3645 190.447 15.1445 190.427 14.9295C190.402 14.7095 190.302 14.4795 190.122 14.2395C189.947 14.0045 189.752 13.8445 189.542 13.7545C189.332 13.6645 189.112 13.6545 188.872 13.7195C188.632 13.7845 188.372 13.9245 188.092 14.1345C187.812 14.3445 187.607 14.5545 187.482 14.7695C187.352 14.9795 187.302 15.1995 187.332 15.4245C187.362 15.6495 187.462 15.8795 187.642 16.1095Z" fill="white"/>
<path d="M188.827 18.5743L188.667 18.2043L192.142 16.6943L192.317 17.0993L190.682 19.6593L190.297 20.2643L190.312 20.2993L190.857 20.0643L193.167 19.0593L193.327 19.4243L189.852 20.9343L189.677 20.5343L191.307 17.9593L191.682 17.3593L191.672 17.3343L191.137 17.5643L188.827 18.5693V18.5743Z" fill="white"/>
<path d="M190.297 23.1994C190.232 22.8494 190.257 22.5294 190.367 22.2444C190.477 21.9594 190.662 21.7244 190.927 21.5345C191.187 21.3445 191.517 21.2145 191.902 21.1445C192.292 21.0745 192.642 21.0795 192.952 21.1595C193.262 21.2445 193.522 21.3944 193.727 21.6244C193.932 21.8494 194.067 22.1394 194.132 22.4944C194.187 22.7944 194.182 23.0694 194.112 23.3194C194.042 23.5694 193.917 23.7794 193.732 23.9444C193.547 24.1094 193.312 24.2194 193.032 24.2694L192.987 24.2794L192.907 23.8594L192.957 23.8494C193.282 23.7894 193.512 23.6544 193.647 23.4444C193.782 23.2294 193.812 22.9294 193.742 22.5444C193.687 22.2494 193.587 22.0244 193.442 21.8594C193.297 21.6944 193.102 21.5894 192.862 21.5444C192.617 21.4994 192.327 21.5094 191.982 21.5694C191.642 21.6294 191.367 21.7294 191.152 21.8544C190.942 21.9844 190.797 22.1494 190.722 22.3544C190.647 22.5594 190.637 22.8094 190.692 23.0994C190.762 23.4894 190.897 23.7594 191.097 23.9094C191.297 24.0594 191.562 24.1044 191.887 24.0444L191.932 24.0344L192.007 24.4544H191.967C191.687 24.5144 191.427 24.4944 191.192 24.4044C190.957 24.3144 190.762 24.1644 190.607 23.9544C190.452 23.7444 190.352 23.4894 190.297 23.1894V23.1994Z" fill="white"/>
<path d="M190.627 25.6793L190.642 25.2793L194.427 25.4243L194.367 26.9643C194.357 27.2243 194.307 27.4493 194.212 27.6443C194.122 27.8393 193.987 27.9842 193.817 28.0892C193.647 28.1942 193.447 28.2392 193.212 28.2342C192.997 28.2242 192.812 28.1742 192.662 28.0742C192.507 27.9742 192.392 27.8393 192.317 27.6693C192.242 27.4993 192.202 27.2993 192.207 27.0693H192.172C192.137 27.1843 192.077 27.2843 191.997 27.3643C191.917 27.4443 191.812 27.5193 191.687 27.5793L190.527 28.1792L190.547 27.7092L191.632 27.1343C191.742 27.0843 191.837 27.0193 191.912 26.9493C191.987 26.8793 192.042 26.7893 192.082 26.6893C192.122 26.5843 192.142 26.4493 192.147 26.2843L192.167 25.7343L190.627 25.6743V25.6793ZM194.042 25.8093L192.512 25.7493L192.467 26.9493C192.457 27.2343 192.507 27.4493 192.627 27.5943C192.742 27.7393 192.937 27.8143 193.202 27.8243C193.462 27.8343 193.657 27.7743 193.787 27.6393C193.917 27.5043 193.987 27.2943 193.997 27.0093L194.042 25.8093Z" fill="white"/>
<path d="M189.817 31.1342L190.397 28.7893L190.757 28.8793L190.177 31.2242L189.817 31.1342ZM190.327 29.0443L190.422 28.6543L194.096 29.5593L194.001 29.9493L190.327 29.0443ZM191.501 31.4592L192.061 29.1993L192.422 29.2893L191.862 31.5493L191.501 31.4592ZM193.131 31.9492L193.711 29.6043L194.066 29.6943L193.487 32.0342L193.131 31.9442V31.9492Z" fill="white"/>
<path d="M188.967 33.0591L189.137 32.7041L192.557 34.3241L192.386 34.6791L188.967 33.0591ZM191.477 35.739L192.802 32.9491L193.131 33.1041L191.811 35.894L191.482 35.739H191.477Z" fill="white"/>
<path d="M186.667 36.6141L188.097 34.6691L188.397 34.8891L186.967 36.8341L186.667 36.6141ZM187.942 34.8841L188.177 34.5591L191.227 36.8041L190.987 37.129L187.937 34.8841H187.942ZM188.102 37.564L189.482 35.6891L189.782 35.9091L188.402 37.784L188.102 37.564ZM189.422 38.639L190.852 36.694L191.147 36.914L189.717 38.859L189.422 38.639Z" fill="white"/>
<path d="M178.742 34.4692V31.3093C178.742 29.4043 177.357 27.8343 175.657 27.0593V25.0394C175.657 24.0744 175.042 23.2494 174.182 22.9244V18.2295H172.652V22.8894C171.737 23.1844 171.072 24.0394 171.072 25.0444V27.0643C169.372 27.8443 167.987 29.4243 167.987 31.3443V34.4292L164.927 35.8142V49.324H166.457V36.7992L173.377 33.6642L180.272 36.8642V49.324H181.802V35.8892L178.742 34.4692ZM172.602 25.0394C172.602 24.6394 172.952 24.3044 173.367 24.3044C173.782 24.3044 174.132 24.6394 174.132 25.0394V26.5944C173.877 26.5544 173.622 26.5344 173.367 26.5344C173.112 26.5344 172.857 26.5544 172.602 26.5944V25.0344V25.0394ZM177.212 33.7592L175.657 33.0392V29.9943C175.367 29.6393 174.892 29.2593 174.127 29.0493V32.3243L173.382 31.9793L172.602 32.3342V29.0793C171.757 29.3043 171.307 29.7143 171.072 30.0693V33.0292L169.517 33.7342V31.3393C169.517 29.5243 171.622 28.0643 173.367 28.0643C175.112 28.0643 177.217 29.5093 177.217 31.3043V33.7542L177.212 33.7592Z" fill="#F04923"/>
<path d="M178.742 34.4692V31.3093C178.742 29.4043 177.357 27.8343 175.657 27.0593V25.0394C175.657 24.0744 175.042 23.2494 174.182 22.9244V18.2295H173.362V24.3044C173.777 24.3044 174.127 24.6394 174.127 25.0394V26.5944C173.872 26.5544 173.617 26.5344 173.362 26.5344V28.0643C175.107 28.0643 177.212 29.5093 177.212 31.3043V33.7542L175.657 33.0342V29.9893C175.367 29.6343 174.892 29.2543 174.127 29.0443V32.3192L173.382 31.9742V33.6592L180.272 36.8592V49.319H181.802V35.8842L178.742 34.4642V34.4692Z" fill="#F04923"/>
<path d="M177.212 49.3238H178.742V37.309L177.212 36.594V49.3238Z" fill="#F04923"/>
<path d="M174.127 49.3238H175.657V35.8741L174.127 35.1641V49.3238Z" fill="#F04923"/>
<path d="M171.072 49.324H172.602V35.2192L171.072 35.9142V49.324Z" fill="#F04923"/>
<path d="M167.987 49.3237H169.517V36.6189L167.987 37.3139V49.3237Z" fill="#F04923"/>
<path d="M174.127 49.3238H175.657V35.8741L174.127 35.1641V49.3238Z" fill="#F04923"/>
<path d="M57.0539 35.524L56.4589 37.274L60.3438 39.129L64.1937 37.264L63.5988 35.519L60.3438 37.084L57.0539 35.524Z" fill="#F04923"/>
<path d="M62.7538 33.0439L60.3338 34.1989L57.8989 33.049L57.2389 34.9839L60.3438 36.4639L63.4138 34.9839L62.7538 33.0439Z" fill="#F04923"/>
<path d="M60.3338 33.5891L62.5688 32.5141L60.3188 25.9292L58.0789 32.5141L60.3338 33.5891Z" fill="#F04923"/>
<path d="M64.3788 37.8042L60.3439 39.7541L56.2789 37.8092L55.6439 39.6742L60.3739 42.1391L65.0188 39.6792L64.3788 37.8042Z" fill="#F04923"/>
<path d="M60.3489 37.0792V39.1241L64.1838 37.2692L63.5888 35.5242L60.3489 37.0842V37.0792Z" fill="#B23225"/>
<path d="M63.4039 34.989L62.7439 33.0491L60.339 34.194L60.344 36.464H60.349L63.4039 34.989Z" fill="#B23225"/>
<path d="M60.3386 33.5841L62.5636 32.5141L60.3236 25.9292V26.5792L60.3386 33.5841Z" fill="#B23225"/>
<path d="M64.3638 37.8091L60.3539 39.7541L60.3589 42.134L64.9988 39.6741L64.3638 37.8091Z" fill="#B23225"/>
<path d="M197.407 4.96491C197.032 4.96491 196.691 4.90492 196.376 4.78492C196.062 4.66492 195.787 4.48993 195.552 4.26993C195.317 4.04993 195.137 3.78493 195.012 3.47994C194.882 3.17494 194.822 2.84495 194.822 2.47995C194.822 2.11496 194.887 1.77996 195.012 1.47997C195.142 1.17498 195.322 0.914976 195.552 0.69498C195.782 0.474984 196.062 0.299987 196.376 0.17999C196.691 0.0599916 197.037 0 197.407 0C197.777 0 198.126 0.0599916 198.441 0.17999C198.756 0.299987 199.031 0.474984 199.261 0.69498C199.491 0.914976 199.676 1.17998 199.801 1.47997C199.931 1.78496 199.996 2.11496 199.996 2.47995C199.996 2.84495 199.931 3.17994 199.801 3.47994C199.671 3.78493 199.491 4.04493 199.261 4.26993C199.031 4.49493 198.756 4.66492 198.441 4.78492C198.126 4.90492 197.782 4.96491 197.407 4.96491ZM197.407 4.64991C197.817 4.64991 198.182 4.55992 198.497 4.37492C198.812 4.19493 199.056 3.93993 199.236 3.60994C199.416 3.27994 199.506 2.90494 199.506 2.47495C199.506 2.04496 199.416 1.66997 199.236 1.33997C199.056 1.01498 198.812 0.759984 198.497 0.574987C198.182 0.39499 197.817 0.299998 197.407 0.299998C196.997 0.299998 196.631 0.38999 196.317 0.574987C196.002 0.754984 195.757 1.00998 195.577 1.33997C195.397 1.66497 195.307 2.04496 195.307 2.47495C195.307 2.90494 195.397 3.27994 195.577 3.60994C195.757 3.93493 196.002 4.18993 196.317 4.37492C196.631 4.55492 196.997 4.64991 197.407 4.64991ZM198.471 3.96493C198.296 3.96493 198.141 3.91492 198.021 3.81993C197.896 3.72493 197.757 3.55493 197.607 3.30494L197.136 2.54996H196.997V3.91493H196.382V1.44997C196.382 1.31997 196.372 1.21497 196.347 1.13497C196.322 1.05498 196.267 1.01498 196.172 1.01498H196.047V0.904983H197.256C197.471 0.904983 197.672 0.929975 197.857 0.974974C198.042 1.01997 198.196 1.10498 198.316 1.22997C198.436 1.35497 198.497 1.52997 198.497 1.74997C198.497 1.90997 198.461 2.03996 198.386 2.13996C198.316 2.24496 198.222 2.31995 198.112 2.37995C198.002 2.43495 197.886 2.47995 197.776 2.50495L198.251 3.27494C198.356 3.44493 198.457 3.56994 198.542 3.65994C198.626 3.74994 198.726 3.79994 198.836 3.81494V3.91493C198.836 3.91493 198.807 3.92992 198.747 3.94492C198.687 3.95992 198.596 3.96493 198.471 3.96493ZM197.232 2.34496C197.402 2.34496 197.547 2.29996 197.657 2.20496C197.767 2.10997 197.826 1.94997 197.826 1.71997C197.826 1.48998 197.772 1.33497 197.657 1.24497C197.547 1.14998 197.402 1.10498 197.232 1.10498C197.192 1.10498 197.161 1.10498 197.136 1.10498C197.111 1.10498 197.086 1.10498 197.061 1.10498C197.051 1.10498 197.042 1.10998 197.027 1.10998H196.992V2.31995C196.992 2.31995 197.022 2.32496 197.032 2.32496H197.066C197.066 2.32496 197.117 2.32996 197.142 2.32996H197.227L197.232 2.34496Z" fill="white"/>
</svg>
