<svg width="16" height="16" viewBox="0 0 16 16" fill="none" xmlns="http://www.w3.org/2000/svg">
<path d="M8.33299 14.6668H2.71965C1.94632 14.6668 1.31299 14.0468 1.31299 13.2868V3.39342C1.31299 1.64676 2.61299 0.853424 4.20632 1.63342L7.16632 3.08676C7.80632 3.40009 8.33299 4.23342 8.33299 4.94009V14.6668Z" stroke="#555555" stroke-linecap="round" stroke-linejoin="round"/>
<path d="M14.6468 10.04V12.56C14.6468 14 13.9802 14.6667 12.5402 14.6667H8.3335V6.94672L8.64683 7.01338L11.6468 7.68672L13.0002 7.98672C13.8802 8.18005 14.6002 8.63338 14.6402 9.91338C14.6468 9.95338 14.6468 9.99338 14.6468 10.04Z" stroke="#555555" stroke-linecap="round" stroke-linejoin="round"/>
<path d="M3.6665 6.00006H5.97984" stroke="#555555" stroke-linecap="round" stroke-linejoin="round"/>
<path d="M3.6665 8.66675H5.97984" stroke="#555555" stroke-linecap="round" stroke-linejoin="round"/>
<path d="M11.6465 7.6867V9.83337C11.6465 10.66 10.9732 11.3334 10.1465 11.3334C9.31982 11.3334 8.64648 10.66 8.64648 9.83337V7.01337L11.6465 7.6867Z" stroke="#555555" stroke-linecap="round" stroke-linejoin="round"/>
<path d="M14.6398 9.91337C14.5998 10.7 13.9465 11.3334 13.1465 11.3334C12.3198 11.3334 11.6465 10.66 11.6465 9.83337V7.68671L12.9998 7.98671C13.8798 8.18004 14.5998 8.63337 14.6398 9.91337Z" stroke="#555555" stroke-linecap="round" stroke-linejoin="round"/>
</svg>
