<svg width="16" height="16" viewBox="0 0 16 16" fill="none" xmlns="http://www.w3.org/2000/svg">
<path d="M8.67318 1.94669L12.6065 3.69336C13.7399 4.19336 13.7399 5.02002 12.6065 5.52002L8.67318 7.26669C8.22652 7.46669 7.49318 7.46669 7.04652 7.26669L3.11318 5.52002C1.97985 5.02002 1.97985 4.19336 3.11318 3.69336L7.04652 1.94669C7.49318 1.74669 8.22652 1.74669 8.67318 1.94669Z" stroke="#555555" stroke-linecap="round" stroke-linejoin="round"/>
<path d="M2 7.33331C2 7.89331 2.42 8.53998 2.93333 8.76665L7.46 10.78C7.80667 10.9333 8.2 10.9333 8.54 10.78L13.0667 8.76665C13.58 8.53998 14 7.89331 14 7.33331" stroke="#555555" stroke-linecap="round" stroke-linejoin="round"/>
<path d="M2 10.6667C2 11.2867 2.36667 11.8467 2.93333 12.1L7.46 14.1134C7.80667 14.2667 8.2 14.2667 8.54 14.1134L13.0667 12.1C13.6333 11.8467 14 11.2867 14 10.6667" stroke="#555555" stroke-linecap="round" stroke-linejoin="round"/>
</svg>
